<svg fill="none" height="103" viewBox="0 0 90 103" width="90" xmlns="http://www.w3.org/2000/svg"><g fill="#1d4ed8"><path d="m71.2697 15.4908 17.4804 10.2896.1708 20.2833-17.6646-9.7865z"/><path d="m43.62 20.2822.0339 31.9313-43.059894 24.8606 43.146994 24.9599c.9286.537 2.0732.538 3.0022.002l40.9281-23.6302c.936-.5404 1.509-1.5426 1.4999-2.6233l-.184-21.8519-17.7224-9.6706.0254 23.9485-27.6024 15.9363-10.6356-6.1555 27.002-15.5896c.9257-.5345 1.4971-1.5212 1.4999-2.5901l.1292-48.2384c.0028-1.0656-.5598-2.05279-1.4782-2.59337l-14.5475-8.563182c-.9315-.548277-2.0858-.553139-3.0219-.012725l-41.1357 23.749677c-.93549.5402-1.50838223 1.5415-1.49990726 2.6217l.35134626 44.7811 15.693961-9.0609-.0279-26.275z"/></g></svg>