<svg fill="none" height="15" viewBox="0 0 13 15" width="13" xmlns="http://www.w3.org/2000/svg"><path d="m6.1127 0c-3.37588 0-6.1127 2.73682-6.1127 6.1127 0 4.0199 3.97436 5.9443 4.47227 6.3922.50847.4573.92857 1.4826 1.09806 2.0639.08225.2823.31342.4251.54237.4312.2295-.0067.46011-.1495.54236-.4312.16949-.5813.5896-1.606 1.09806-2.0639.49791-.4479 4.47228-2.3723 4.47228-6.3922 0-3.37588-2.73683-6.1127-6.1127-6.1127zm0 7.7798c-.9208 0-1.6671-.74631-1.6671-1.6671 0-.9208.7463-1.6671 1.6671-1.6671.92079 0 1.66709.7463 1.66709 1.6671 0 .92079-.7463 1.6671-1.66709 1.6671z" fill="#0e0f2d" fill-opacity=".5"/></svg>