<svg fill="none" height="16" viewBox="0 0 16 16" width="16" xmlns="http://www.w3.org/2000/svg"><path d="m7.5.5c-.91925 0-1.8295.18106-2.67878.53284-.84928.35179-1.62096.8674-2.27097 1.51741s-1.16562 1.42169-1.51741 2.27097c-.35178.84928-.53284 1.75953-.53284 2.67878s.18106 1.8295.53284 2.6788c.35179.8493.8674 1.6209 1.51741 2.2709.65001.6501 1.42169 1.1657 2.27097 1.5175.84928.3517 1.75953.5328 2.67878.5328s1.8295-.1811 2.6788-.5328c.8493-.3518 1.6209-.8674 2.2709-1.5175.6501-.65 1.1657-1.4216 1.5175-2.2709.3517-.8493.5328-1.75955.5328-2.6788s-.1811-1.8295-.5328-2.67878c-.3518-.84928-.8674-1.62096-1.5175-2.27097-.65-.65001-1.4216-1.16562-2.2709-1.51741-.8493-.35178-1.75955-.53284-2.6788-.53284z" fill="#bae0bd"/><g fill="#5e9c76"><path d="m7.5 1c3.6 0 6.5 2.9 6.5 6.5s-2.9 6.5-6.5 6.5-6.5-2.9-6.5-6.5 2.9-6.5 6.5-6.5zm0-1c-4.1 0-7.5 3.4-7.5 7.5s3.4 7.5 7.5 7.5 7.5-3.4 7.5-7.5-3.4-7.5-7.5-7.5z"/><path d="m6.29995 10.5-2.6-2.6.7-.7 1.9 1.9 4.90005-4.8.7.7z"/></g></svg>