<svg fill="none" height="16" viewBox="0 0 16 16" width="16" xmlns="http://www.w3.org/2000/svg"><path d="m7.5.5c-.91925 0-1.8295.18106-2.67878.53284-.84928.35179-1.62096.8674-2.27097 1.51741s-1.16562 1.42169-1.51741 2.27097c-.35178.84928-.53284 1.75953-.53284 2.67878s.18106 1.8295.53284 2.6788c.35179.8493.8674 1.6209 1.51741 2.2709.65001.6501 1.42169 1.1657 2.27097 1.5175.84928.3517 1.75953.5328 2.67878.5328s1.8295-.1811 2.6788-.5328c.8493-.3518 1.6209-.8674 2.2709-1.5175.6501-.65 1.1657-1.4216 1.5175-2.2709.3517-.8493.5328-1.75955.5328-2.6788s-.1811-1.8295-.5328-2.67878c-.3518-.84928-.8674-1.62096-1.5175-2.27097-.65-.65001-1.4216-1.16562-2.2709-1.51741-.8493-.35178-1.75955-.53284-2.6788-.53284z" fill="#f78f8f"/><g fill="#c74343"><path d="m7.5 1c3.584 0 6.5 2.916 6.5 6.5s-2.916 6.5-6.5 6.5-6.5-2.916-6.5-6.5 2.916-6.5 6.5-6.5zm0-1c-4.142 0-7.5 3.358-7.5 7.5s3.358 7.5 7.5 7.5 7.5-3.358 7.5-7.5-3.358-7.5-7.5-7.5z"/><path d="m9.97498 4.31807.70712.70712-5.65698 5.65671-.7071-.70708z"/><path d="m10.682 9.97482-.70709.70708-5.65695-5.65671.70709-.70712z"/></g></svg>