<svg fill="none" height="6" viewBox="0 0 20 6" width="20" xmlns="http://www.w3.org/2000/svg"><path d="m20 2.72727c0-1.50035-1.2269-2.72727005-2.7273-2.72727012-1.5003-.00000006-2.7272 1.22692012-2.7272 2.72727012 0 1.50036 1.2269 2.72728 2.7272 2.72728 1.5004 0 2.7273-1.22692 2.7273-2.72728zm-7.2727 0c0-1.50035-1.2269-2.72727037-2.7273-2.72727044-1.50036-.00000006-2.72727 1.22692044-2.72727 2.72727044 0 1.50036 1.22691 2.72727 2.72727 2.72728 1.5004 0 2.7273-1.22692 2.7273-2.72728zm-7.27276 0c0-1.50035-1.22691-2.72727069-2.72727-2.72727076-1.50035-.00000006-2.72727005 1.22692076-2.72727012 2.72727076-.00000006 1.50036 1.22692012 2.72727 2.72727012 2.72727 1.50036 0 2.72727-1.22691 2.72727-2.72727z" fill="#0e0f2d"/></svg>