<svg fill="none" height="23" viewBox="0 0 20 23" width="20" xmlns="http://www.w3.org/2000/svg"><path d="m8.42148 0c-2.90225 0-5.26342 2.36117-5.26342 5.26343 0 2.90225 2.36117 5.26347 5.26342 5.26347 2.90222 0 5.26342-2.36122 5.26342-5.26347 0-2.90226-2.3612-5.26343-5.26342-5.26343zm9.21002 10.5269c-.1443.0005-.2901.0132-.437.04-.4652.0837-.9097.3264-1.285.7022l-6.2102 6.2102c-.1879.1879-.32621.4222-.39989.6764l-.82653 2.8846c-.03789.1-.05508.2057-.0514.3115.00684.1911.0819.38.22822.5264.1458.1458.33375.2208.52429.2282.10579.0037.21301-.013.31354-.0514l2.88457-.8265c.2543-.0737.487-.2115.6754-.3999l6.2113-6.2103c.3758-.3752.6184-.8197.7021-1.285.0263-.1468.0386-.2927.0391-.4369.0016-.6284-.2407-1.2225-.6939-1.6746-.4521-.4527-1.0462-.696-1.6746-.6949zm-15.26296 2.1053c-1.30585 0-2.36854 1.0627-2.36854 2.3686v.6312c0 2.8154 3.17581 5.0627 7.39655 5.3796.02-.1174.89026-3.1458.89026-3.1458.12369-.4279.35501-.8186.66924-1.1318l4.10175-4.1018z" fill="#0e0f2d"/></svg>