<svg fill="none" height="20" viewBox="0 0 20 20" width="20" xmlns="http://www.w3.org/2000/svg"><path d="m8.46154 0c-4.67308 0-8.46154 3.44385-8.46154 7.69231 0 2.182 1.00625 4.14439 2.61268 5.54239-.23042.7546-.71106 1.5051-1.59405 2.174-.0005.0005-.001.001-.0015.0015-.072831.0277-.13553.0768-.179798.1409-.044267.0642-.068016.1402-.068101.2181 0 .102.040522.1999.112651.272s.169958.1126.271968.1126c.02628-.0003.05246-.0033.07812-.009 1.49236-.0043 2.76568-.6418 3.77855-1.4408.48065.1955.98238.3567 1.50541.4688-.23385-.6616-.36208-1.3659-.36208-2.0959 0-3.81767 3.45077-6.92305 7.69235-6.92305 1.063 0 2.0764.1953 2.9988.54837-.5354-3.78-4.0804-6.70222-8.38346-6.70222zm5.38466 7.69231c-1.6321 0-3.1974.5673-4.35147 1.57712-1.15407 1.00977-1.80242 2.37937-1.80242 3.80747s.64835 2.7977 1.80242 3.8075 2.71937 1.5771 4.35147 1.5771c.7868-.0011 1.5661-.1342 2.2956-.3921.9434.659 2.085 1.1478 3.3925 1.1524.0266.0058.0538.0089.0811.009.102 0 .1998-.0406.272-.1127.0721-.0721.1126-.1699.1126-.2719-.0001-.0788-.0244-.1555-.0695-.22-.0452-.0645-.109-.1136-.1829-.1406-.704-.5345-1.1552-1.1228-1.4258-1.7218 1.0755-.9972 1.6757-2.3158 1.6782-3.6869 0-1.4281-.6483-2.7977-1.8024-3.80747-1.1541-1.00982-2.7193-1.57712-4.3514-1.57712z" fill="#0e0f2d" /></svg>