<svg fill="none" height="15" viewBox="0 0 16 15" width="16" xmlns="http://www.w3.org/2000/svg"><path d="m6.1875 0c-.93 0-1.6875.7575-1.6875 1.6875v3.1875h1.125v-3.1875c0-.31125.25125-.5625.5625-.5625h7.875c.3112 0 .5625.25125.5625.5625v6c0 .31125-.2513.5625-.5625.5625h-2.0625v1.125h2.0625c.93 0 1.6875-.7575 1.6875-1.6875v-6c0-.93-.7575-1.6875-1.6875-1.6875zm.5625 1.875c-.20625 0-.375.16875-.375.375v.375c0 .20625.16875.375.375.375h.375c.20625 0 .375-.16875.375-.375v-.375c0-.20625-.16875-.375-.375-.375zm6.375 0c-.207 0-.375.168-.375.375v.375c0 .207.168.375.375.375h.375c.207 0 .375-.168.375-.375v-.375c0-.207-.168-.375-.375-.375zm-6.375 2.25c-.20625 0-.375.16875-.375.375v.375h1.125v-.375c0-.20625-.16875-.375-.375-.375zm6.375 0c-.207 0-.375.168-.375.375v.375c0 .207.168.375.375.375h.375c.207 0 .375-.168.375-.375v-.375c0-.207-.168-.375-.375-.375zm-11.4375 1.5c-.925313 0-1.6875.76219-1.6875 1.6875v6c0 .9253.762187 1.6875 1.6875 1.6875h7.875c.9253 0 1.6875-.7622 1.6875-1.6875v-6c0-.92531-.7622-1.6875-1.6875-1.6875zm11.4375.75c-.207 0-.375.168-.375.375v.375c0 .207.168.375.375.375h.375c.207 0 .375-.168.375-.375v-.375c0-.207-.168-.375-.375-.375zm-11.4375.375h7.875c.31744 0 .5625.24506.5625.5625v5.1409l-2.05005-1.9871c-.46632-.4511-1.22191-.4511-1.68823 0l-.55591.5376-1.33154-1.28759c-.23316-.22554-.53838-.33838-.84375-.33838s-.61059.11284-.84375.33838l-1.68677 1.63179v-4.0356c0-.31744.24506-.5625.5625-.5625zm6.5625 1.125c-.19891 0-.38968.07902-.53033.21967s-.21967.33142-.21967.53033.07902.38968.21967.53033.33142.21967.53033.21967.38968-.07902.53033-.21967.21967-.33142.21967-.53033-.07902-.38968-.21967-.53033-.33142-.21967-.53033-.21967zm-4.59448 2.6221c.02134 0 .04231.0092.06152.0278l1.30444 1.262-2.15844 2.0881h-1.17554c-.31744 0-.5625-.2451-.5625-.5625v-.3992l2.46826-2.3884c.01922-.0186.04092-.0278.06226-.0278zm3.57568.75c.02134 0 .04231.0092.06152.0278l2.58545 2.5063c-.08931.0593-.19723.0938-.31567.0938h-5.08154l2.68799-2.6001c.01921-.0186.04091-.0278.06225-.0278z" fill="#0e0f2d" fill-opacity=".5"/></svg>