<svg fill="none" height="15" viewBox="0 0 15 15" width="15" xmlns="http://www.w3.org/2000/svg"><path d="m7.5 0c-4.14187 0-7.5 3.35813-7.5 7.5 0 4.1419 3.35813 7.5 7.5 7.5 4.1419 0 7.5-3.3581 7.5-7.5 0-4.14187-3.3581-7.5-7.5-7.5zm3.125 8.125h-2.5v2.5c0 .3456-.28.625-.625.625s-.625-.2794-.625-.625v-2.5h-2.5c-.345 0-.625-.27938-.625-.625s.28-.625.625-.625h2.5v-2.5c0-.34562.28-.625.625-.625s.625.27938.625.625v2.5h2.5c.345 0 .625.27938.625.625s-.28.625-.625.625z" fill="#0e0f2d" fill-opacity=".5"/></svg>