<svg fill="none" height="21" viewBox="0 0 21 21" width="21" xmlns="http://www.w3.org/2000/svg"><path d="m1.19492 0-.989842.989844 19.600022 19.599956.9898-.9898-4.2178-4.2178c2.8671-1.9412 4.2823-4.6556 4.3012-4.6922.0794-.1164.1218-.2541.1217-.3951-.0001-.1579-.0536-.31108-.1518-.43474-.0729-.11741-4.1054-6.56524-10.3482-6.56524-1.7711 0-3.36047.52514-4.73594 1.27422zm9.30508 5.39492c2.7062 0 4.9 2.1938 4.9 4.89998 0 1.1004-.371 2.109-.9844 2.9258l-1.508-1.508c.2475-.4153.3924-.8986.3924-1.4178 0-1.54628-1.2537-2.79998-2.8-2.79998-.5192 0-1.00248.14491-1.41777.39238l-1.50801-1.508c.81679-.61341 1.82541-.98438 2.92578-.98438zm-7.03418.75332c-2.08041 1.74997-3.273333 3.6476-3.312695 3.71055-.0989527.12384-.15293919.27761-.153125.43611.0001382.1371.0405475.2712.116211.3856.012036.0248 3.396969 6.6144 10.383789 6.6144 1.295 0 2.4644-.2285 3.5137-.5974l-1.8116-1.8129c-.5313.1974-1.1029.3103-1.7021.3103-2.7062 0-4.9-2.1938-4.9-4.9 0-.59918.11295-1.17083.31035-1.70213zm4.24238 4.22466c.042 1.4819 1.2306 2.6718 2.7125 2.7138z" fill="#0e0f2d"/></svg>