<svg fill="none" height="16" viewBox="0 0 20 16" width="20" xmlns="http://www.w3.org/2000/svg"><path d="m6.29427 0c-3.634.0626667-4.00537 2.58256-3.27604 5.47656-.14133.08134-.37377.33951-.31511.79818.10934.85533.48015 1.07184.71615 1.08984.09.79867.9474 1.82009 1.2474 1.96875v1.33337c-.66667 2-4.66667 0-4.66667 5.3333h8c0-2.3653 1.32629-3.3841 2.4323-3.9701-1.03867-.364-2.1143-.4092-2.4323-1.3632v-1.33337c.3-.14866 1.15673-1.16944 1.2474-1.96744.05333-.18867.09505-.86363.09505-1.01563 0-.83267-.01222-2.55371.50911-3.90104-.182-.90533-.65775-1.668866-1.67708-1.769532-.27267-.451334-.97154-.679688-1.88021-.679688zm8.45443.666667c-.7493 0-1.3281.666663-1.3281.666663-4.29469 0-1.9106 7.30223-3.1719 8.35157 0 0 .6706.9935 3.0846.9935v.8502c-.6666 1.8047-3.99997 1.1381-3.99997 4.4714h10.66667c0-3.3333-3.3333-2.6667-4-4.4714v-.858c2.426 0 2.9883-.96096 2.9883-.96096-1.358-1.11467 1.0111-9.042973-4.2396-9.042973z" fill="#0e0f2d" fill-opacity=".5"/></svg>