<svg fill="none" height="20" viewBox="0 0 22 20" width="22" xmlns="http://www.w3.org/2000/svg"><path d="m2.5.00000058c-.22101 0-.43298.08779732-.58926.24407742-.15628.156281-.24407.368242-.24407.589256.00017.075384.01057.150395.03092.222986.00054.00163.00108.00325.00163.00488l.80078 5.60547-2.5 1.66666 17.5 1.66667-17.5 1.6667 2.5 1.6666-.80078 5.6071c-.02119.0736-.03215.1497-.03255.2263 0 .221.08779.4329.24407.5892s.36825.2441.58926.2441c.11079-.0006.22035-.0233.32227-.0667l.00162.0016.03581-.0179.0179-.0081c.00491-.0027.0098-.0054.01465-.0082l18.26665-9.1325.0016-.0032c.1499-.064.2778-.1706.3678-.3066s.1381-.2954.1384-.4584c-.0001-.16351-.0483-.32337-.1386-.45968s-.2187-.24305-.3692-.30692c0-.00054 0-.00109 0-.00163h-.0017l-18.25844-9.12923c-.02431-.013725-.0493-.026219-.07487-.0374353-.10253-.0430994-.21266-.06523568-.32389-.06510412z" fill="#0e0f2d"/></svg>