<svg fill="none" height="12" viewBox="0 0 14 12" width="14" xmlns="http://www.w3.org/2000/svg"><path d="m12.5 0c.5515 0 1 .4485 1 1v10c0 .5515-.4485 1-1 1h-7c-.5515 0-1-.4485-1-1v-4.5h4c.276 0 .5-.224.5-.5s-.224-.5-.5-.5h-4v-4.5c0-.5515.4485-1 1-1zm-8 5.5v1h-2.79297l1.14649 1.14648c.04798.04608.08629.10126.11269.16233.02639.06106.04033.12678.04101.1933s-.01193.1325-.03707.19409-.06232.11755-.10936.16459-.103.08422-.16459.10936-.12757.03775-.19409.03707-.13224-.01462-.1933-.04101c-.06107-.0264-.11625-.06471-.16233-.11269l-1.999996-2c-.0937325-.09378-.14638768-.22093-.14638768-.35352s.05265518-.25974.14638768-.35352l1.999996-2c.0466-.04789.10232-.08597.16388-.11196.06156-.026.1277-.0394.19452-.0394.09947.00002.19667.02971.27917.08527.08251.05556.14657.13446.184.22661.03743.09216.04652.19338.02612.29073-.0204.09736-.06937.18641-.14065.25579l-1.14649 1.14648z" fill="#0e0f2d"/></svg>