<svg fill="none" height="15" viewBox="0 0 15 15" width="15" xmlns="http://www.w3.org/2000/svg"><path d="m14.3392.0077054c-.2773-.0396963-.5637.0752227-.7348.3161536l-2.7416 3.858541-.7703-.43089c-.53622-.3-1.20988-.18534-1.61737.27465l-.73241.82761 6.14848 3.47526.3345-1.0803c.1831-.58998-.0722-1.22704-.6115-1.52828l-.5677-.31737 1.8884-4.32607c.1575-.361237.0172-.782788-.3259-.976534-.0856-.048592-.1773-.0795386-.2698-.0927706zm-13.714216 2.4926146c-.165756 0-.324723.06584-.44193.18305-.1172077.11721-.183054.27618-.183054.44193 0 .16576.0658463.32473.183054.44193.117207.11721.276174.18306.44193.18306s.324723-.06585.441926-.18306c.11721-.1172.18306-.27617.18306-.44193 0-.16575-.06585-.32472-.18306-.44193-.117203-.11721-.27617-.18305-.441926-.18305zm1.249966 1.87495c-.33151 0-.64944.13169-.883859.36611-.234414.23441-.366107.55235-.366107.88386s.131693.64944.366107.88386c.234419.23441.552349.36611.883859.36611s.64945-.1317.88386-.36611c.23442-.23442.36611-.55235.36611-.88386s-.13169-.64945-.36611-.88386c-.23441-.23442-.55235-.36611-.88386-.36611zm5.0072 1.57833c-3.09055 3.14742-6.88215 3.27018-6.88215 3.27018l3.06511 1.85422s1.44238.151 2.13862.0097c-.65561.4444-1.06565.669-1.06565.669l1.665 1.0192s1.78389-.083 4.00258-1.4098c-.43561.9537-1.95918 2.5365-1.95918 2.5365l2.37172 1.0974s1.9538-1.416 3.2788-5.31969z" fill="#0e0f2d"/></svg>