<svg fill="none" height="14" viewBox="0 0 21 14" width="21" xmlns="http://www.w3.org/2000/svg"><path d="m10.5 0c-6.24281 0-10.275308 6.44783-10.348242 6.56523-.0981706.12366-.15165186.27688-.151758.43477.00012418.13545.039543.26795.113477.38145.000906.00137.001818.00273.002734.0041.012036.02483 3.396969 6.61445 10.383789 6.61445 6.9572 0 10.3371-6.52488 10.3783-6.60488.0028-.00453.0055-.00909.0082-.01367.074-.1135.1134-.246.1135-.38145 0-.15726-.053-.30993-.1504-.4334-.0004-.00046-.0009-.00091-.0014-.00137-.0729-.1174-4.1054-6.56523-10.3482-6.56523zm0 2.1c2.7062 0 4.9 2.1938 4.9 4.9s-2.1938 4.9-4.9 4.9-4.9-2.1938-4.9-4.9 2.1938-4.9 4.9-4.9zm0 2.8c-.55695 0-1.0911.22125-1.48492.61508-.39383.39382-.61508.92797-.61508 1.48492s.22125 1.0911.61508 1.48492c.39382.39383.92797.61508 1.48492.61508.557 0 1.0911-.22125 1.4849-.61508.3939-.39382.6151-.92797.6151-1.48492s-.2212-1.0911-.6151-1.48492c-.3938-.39383-.9279-.61508-1.4849-.61508z" fill="#0e0f2d"/></svg>