<svg fill="none" height="15" viewBox="0 0 15 15" width="15" xmlns="http://www.w3.org/2000/svg"><path d="m6.24623 0c-3.4423 0-6.24623 2.80393-6.24623 6.24623s2.80393 6.24627 6.24623 6.24627c1.49691 0 2.87163-.5316 3.94907-1.414l3.7294 3.7295c.0576.0599.1265.1078.2028.1407.0763.033.1584.0504.2415.0513.0831.0008.1655-.0149.2424-.0463.077-.0315.1469-.0779.2056-.1367.0588-.0587.1052-.1286.1367-.2056.0314-.0769.0471-.1593.0463-.2424-.0009-.0831-.0183-.1652-.0513-.2415-.0329-.0763-.0808-.1452-.1407-.2028l-3.7295-3.7294c.8824-1.07744 1.414-2.45216 1.414-3.94907 0-3.4423-2.80397-6.24623-6.24627-6.24623zm0 1.24925c2.76715 0 4.99697 2.22982 4.99697 4.99698 0 2.76715-2.22982 4.99697-4.99697 4.99697-2.76716 0-4.99698-2.22982-4.99698-4.99697 0-2.76716 2.22982-4.99698 4.99698-4.99698z" fill="#0e0f2d"/></svg>