<svg fill="none" height="17" viewBox="0 0 17 17" width="17" xmlns="http://www.w3.org/2000/svg"><path d="m5.12563 0c.08543 0 .08543-.00000008.17085.0854271.08543.0854269.34171.3417079.34171.5125629 0 .170854 0 .59799.08543.9397.17085.42713.34171 1.53769.59799 2.13568s.34171.9397.08543 1.2814c-.25629.42714-1.8794 2.05026-1.8794 2.05026s.42713.85427.9397 1.36683c.42713.59799 1.11055 1.45226 1.96482 2.13564.85427.7689 1.79397 1.4523 2.73364 1.8794.9397-.9397 1.7086-1.7085 1.9649-1.8794.2562-.1708.2562-.2562.6834-.0854.4271.1709 1.0251.4271 1.7085.5126.598.0854 1.2814.1708 1.7086.2563.4271.0854.4271.0854.5125.2562.1709.1709.2563.4272.2563.5126v1.196 2.3065c0 .2563 0 .2563-.0854.4271-.0855.1709-.1709.598-.1709.598 0 .0855-.4271.2563-.6834.2563s-1.196 0-1.794-.0854-2.2211-.4271-2.8191-.6834c-.598-.1709-2.56278-.8543-4.95474-2.6483-2.2211-1.7085-3.84422-4.01504-4.78392-5.89444-.939696-1.8794-1.452259-3.92965-1.537686-4.95477-.17085396-1.02513-.170854-1.45226-.170854-1.708546.0854271-.256281.341708-.512563.512563-.59799.170854-.085427.427136-.170854.683417-.170854h1.8794z" fill="#0e0f2d" fill-opacity=".5"/></svg>