<svg fill="none" height="20" viewBox="0 0 20 20" width="20" xmlns="http://www.w3.org/2000/svg"><path d="m10 0c-.42461 0-.76923.344615-.76923.769231v.132211c0 .367688-.25892.695748-.622.754208-.17615.02846-.35052.06143-.52283.10066-.35693.08154-.71788-.12054-.85787-.45823l-.05109-.1202c-.1623-.392303-.61203-.579238-1.0051-.416161-.39231.162307-.57925.612031-.41617 1.005111l.05108.12319c.14154.33847.02835.73915-.28395.933-.15077.09384-.29786.19216-.44171.29447-.29846.21307-.71132.16458-.97055-.09465l-.09315-.09315c-.30077-.30077-.78774-.30077-1.08774 0s-.3.78774 0 1.08774l.09315.09315c.25923.25923.30772.67132.09465.97055-.10231.14385-.20063.29094-.29447.44171-.19385.3123-.59527.42622-.9345.28545l-.12169-.05108c-.39231-.16231-.843537.02386-1.006614.41617-.162307.39231.023859.84203.416164 1.00511l.12019.04958c.3377.13999.54128.50094.45974.85787-.03923.17231-.0737.34668-.10216.52283-.0577.36231-.38502.622-.752708.622h-.132211c-.424616 0-.769231.34462-.769231.76923 0 .4246.344615.7692.769231.7692h.132211c.367688 0 .695748.2589.754208.622.02846.1762.06143.3506.10066.5229.08154.3569-.12054.7178-.45823.8578l-.1202.0511c-.392303.1623-.579238.612-.416161 1.0051.162307.3923.612031.5793 1.005111.4162l.12319-.0511c.33923-.1408.73988-.0276.9345.284.09385.1507.19139.2986.29447.4432.21308.2984.16458.7113-.09465.9705l-.09465.0932c-.30077.3007-.30077.7877 0 1.0877s.78774.3008 1.08774 0l.09465-.0931c.25923-.2593.67059-.3093.96905-.0962.14462.1031.29244.2021.44321.296.31154.1938.42622.5953.28546.9345l-.05109.1217c-.1623.3923.02386.8435.41617 1.0066.39231.1623.84203-.0239 1.00511-.4162l.04958-.1202c.14-.3377.50095-.5412.85787-.4597.17231.0392.34668.0737.52284.1022.36077.0561.62049.3835.62049.7512v.1322c0 .4246.34462.7692.76923.7692.4246 0 .7692-.3446.7692-.7692v-.1322c0-.3677.2589-.6958.622-.7542.1762-.0285.3506-.0615.5229-.1007.3569-.0815.7178.1205.8578.4582l.0511.1202c.1623.3923.612.5793 1.0051.4162.3923-.1623.5793-.612.4162-1.0051l-.0511-.1232c-.1408-.3393-.0276-.7399.284-.9345.1507-.0939.2986-.1914.4432-.2945.2984-.2131.7113-.1646.9705.0947l.0932.0946c.3007.3008.7877.3008 1.0877 0s.3008-.7877 0-1.0877l-.0931-.0947c-.2593-.2592-.3093-.6706-.0962-.969.1031-.1446.2021-.2925.296-.4432.1938-.3116.5953-.4263.9345-.2855l.1217.0511c.3923.1623.8435-.0239 1.0066-.4162.1623-.3923-.0239-.842-.4162-1.0051l-.1202-.0496c-.3377-.14-.5412-.5009-.4597-.8578.0392-.1723.0737-.3467.1022-.5229.0561-.3607.3835-.6205.7512-.6205h.1322c.4246 0 .7692-.3446.7692-.7692 0-.42461-.3446-.76923-.7692-.76923h-.1322c-.3677 0-.6958-.25892-.7542-.622-.0285-.17615-.0615-.35052-.1007-.52283-.0815-.35693.1205-.71788.4582-.85787l.1202-.05109c.3923-.1623.5793-.61203.4162-1.0051-.1623-.39231-.612-.57925-1.0051-.41617l-.1232.05108c-.3393.14077-.7399.02758-.9345-.28395-.0939-.15077-.1914-.2986-.2945-.44321-.2131-.29846-.1646-.71132.0947-.97056l.0946-.09314c.3008-.30077.3008-.78774 0-1.08774-.3008-.30077-.7877-.30077-1.0877 0l-.0932.09465c-.2592.25923-.6721.30923-.9705.09615-.1446-.10308-.2925-.20213-.4432-.29597-.3116-.19385-.4248-.59527-.284-.9345l.0511-.12169c.1623-.39231-.0239-.843537-.4162-1.006614-.3923-.162307-.842.023859-1.0051.416164l-.0511.12019c-.14.3377-.5009.54128-.8578.45974-.1723-.03923-.3467-.0737-.5229-.10216-.3615-.0577-.6205-.38502-.6205-.752708v-.132211c0-.424616-.3446-.769231-.7692-.769231zm0 3.84615c3.1374 0 5.722 2.34991 6.1013 5.38462h-4.7717c-.1348-.23348-.3286-.42743-.5619-.56244-.2334-.135-.4981-.20631-.7677-.20679-.0005 0-.001 0-.0015 0l-2.38582-4.13462c.73424-.30944 1.54056-.48077 2.38732-.48077zm-3.71544 1.25601 2.38431 4.12861c-.13545.23376-.20696.49906-.20733.76923.00089.2691.07239.5334.20733.7662l-2.38582 4.1301c-1.47811-1.124-2.4369-2.8962-2.4369-4.8963 0-2.00081.95934-3.77388 2.43841-4.89784zm5.04654 5.66704h4.7702c-.3793 3.0347-2.9639 5.3846-6.1013 5.3846-.84676 0-1.65308-.1713-2.38732-.4807l2.38582-4.1346h.0015c.2698-.0003.5349-.0714.7685-.2065.2337-.135.4277-.3291.5626-.5628z" fill="#0e0f2d" fill-opacity=".5"/></svg>