<svg fill="none" height="15" viewBox="0 0 15 15" width="15" xmlns="http://www.w3.org/2000/svg"><path d="m9.6875 0c-2.93375 0-5.3125 2.37875-5.3125 5.3125 0 .65143.12353 1.27263.33813 1.84937l-4.71313 4.71313v3.125h3.125v-1.875h1.875v-1.875h1.875l.96313-.9631c.57674.2146 1.19794.3381 1.84937.3381 2.9338 0 5.3125-2.37875 5.3125-5.3125s-2.3787-5.3125-5.3125-5.3125zm1.25 2.5c.8631 0 1.5625.69937 1.5625 1.5625 0 .86312-.6994 1.5625-1.5625 1.5625s-1.5625-.69938-1.5625-1.5625c0-.86313.6994-1.5625 1.5625-1.5625z" fill="#0e0f2d"/></svg>