<svg fill="none" height="10" viewBox="0 0 15 10" width="15" xmlns="http://www.w3.org/2000/svg"><path clip-rule="evenodd" d="m10.2957.194536c.2557-.2593813.6743-.2593812.93 0 .2507.254249.2507.662697 0 .916944l-5.54475 5.62366.64369.65285 6.85866-6.956248c.2557-.259381.6742-.259381.93 0 .2507.254249.2507.662698 0 .916948l-7.43262 7.53837c-.19581.19861-.51626.19861-.71208 0l-1.20469-1.22183-.97081.98463c-.19582.1986-.51627.1986-.71208 0l-2.893009-2.93418c-.2506815-.25425-.2506814-.6627 0-.91695.255742-.25938.674255-.25938.929999 0l2.31905 2.35206z" fill="#0e0f2d" fill-opacity=".5" fill-rule="evenodd"/></svg>