<svg fill="none" height="20" viewBox="0 0 20 20" width="20" xmlns="http://www.w3.org/2000/svg"><path clip-rule="evenodd" d="m14.2489 2.59546-8.21755 9.69134c-.10866.1415-.17276.3172-.17276.5102 0 .4636.37581.8394.83939.8394.2704 0 .51166-.1276.66714-.3302l.01036-.0135 6.97502-8.41817c.3203-.38661.8934-.44034 1.28-.12001.3866.32034.4404.89343.12 1.28004l-6.95438 8.39334c-.48448.6222-1.24401 1.0266-2.09814 1.0266-1.46773 0-2.65758-1.1898-2.65758-2.6575 0-.6217.21467-1.1958.57305-1.6486l.00951-.012 8.24514-9.72384c.7423-.863896 1.846-1.41256 3.0758-1.41256 2.24 0 4.0561 1.81611 4.0561 4.05606 0 .91201-.3018 1.75615-.8119 2.43434l-.0127.01696-9.76206 11.79044-.02305.0241c-.99165 1.0334-2.38923 1.6781-3.93574 1.6781-3.01269 0-5.45455-2.4419-5.45455-5.4545 0-1.0798.314624-2.0896.858195-2.9383l.03537-.0552 8.419195-9.72286c.32866-.37955.90274-.4208 1.28234-.09214s.4208.90279.0921 1.28234l-8.33088 9.62086c-.34123.5534-.53814 1.2052-.53814 1.9053 0 2.0085 1.62784 3.6363 3.63637 3.6363 1.01997 0 1.94058-.4187 2.60198-1.0962l9.69017-11.70369c.2738-.37059.4351-.82769.4351-1.32585 0-1.2358-1.0021-2.23788-2.2379-2.23788-.6773 0-1.2839.29995-1.695.77728z" fill="#0e0f2d" fill-rule="evenodd"/></svg>