<svg fill="none" height="17" viewBox="0 0 17 17" width="17" xmlns="http://www.w3.org/2000/svg"><path d="m8.33333 0c-4.6025 0-8.33333 3.73083-8.33333 8.33333 0 4.60247 3.73083 8.33337 8.33333 8.33337 4.60247 0 8.33337-3.7309 8.33337-8.33337 0-4.6025-3.7309-8.33333-8.33337-8.33333zm0 2.29167c1.49584 0 2.70837 1.2125 2.70837 2.70833s-1.21253 2.70833-2.70837 2.70833c-1.49583 0-2.70833-1.2125-2.70833-2.70833s1.2125-2.70833 2.70833-2.70833zm0 12.70833c-2.30833 0-4.34166-1.1733-5.53833-2.9558.93417-1.3584 3.91-2.0442 5.53833-2.0442 1.62834 0 4.60417.6858 5.53837 2.0442-1.1967 1.7825-3.23 2.9558-5.53837 2.9558z" fill="#0e0f2d"/></svg>