<svg fill="none" height="230" viewBox="0 0 429 230" width="429" xmlns="http://www.w3.org/2000/svg"><path d="m429 228h-429v2h429z" fill="#0e0f2d"/><path d="m117.602 216.968c-10.467 0-18.951-8.503-18.951-18.992s8.484-18.992 18.951-18.992c10.466 0 18.95 8.503 18.95 18.992s-8.484 18.992-18.95 18.992z" fill="#0e0f2d"/><path d="m110.282 222.3-5.665-1.027 1.837-10.172 5.665 1.027z" fill="#0e0f2d"/><path d="m121.612 224.356-5.665-1.028 1.837-10.172 5.665 1.028z" fill="#0e0f2d"/><path d="m118.605 226.497c-2.022-1.716-3.141-3.724-2.499-4.484.643-.759 2.802.016 4.824 1.732s3.141 3.723 2.499 4.483c-.643.76-2.802-.015-4.824-1.731z" fill="#0e0f2d"/><path d="m107.511 224.484c-2.022-1.716-3.141-3.723-2.498-4.483.642-.76 2.801.015 4.823 1.731s3.141 3.723 2.499 4.483-2.802-.015-4.824-1.731z" fill="#0e0f2d"/><path d="m118.928 199.821c-3.577 0-6.476-2.906-6.476-6.491s2.899-6.491 6.476-6.491c3.578 0 6.477 2.906 6.477 6.491s-2.899 6.491-6.477 6.491z" fill="#fff"/><path d="m121.59 193.167c-1.193 0-2.159-.968-2.159-2.163s.966-2.164 2.159-2.164c1.192 0 2.159.969 2.159 2.164s-.967 2.163-2.159 2.163z" fill="#0e0f2d"/><path d="m102.652 177.315c-.285-7.031 5.761-12.987 13.505-13.302s14.253 5.129 14.538 12.16-5.098 8.629-12.842 8.944-14.916-.771-15.201-7.802z" fill="#e5e7eb"/><path d="m125.864 196.637c-.367-1.604 3.47-3.855 8.571-5.027s9.533-.821 9.9.784-3.47 3.856-8.571 5.027c-5.101 1.172-9.533.821-9.9-.784z" fill="#0e0f2d"/><path d="m88.6646 202.837c-.367-1.605 3.4704-3.856 8.5712-5.027 5.1012-1.172 9.5332-.821 9.9002.784s-3.47 3.855-8.571 5.027c-5.1008 1.172-9.5334.821-9.9004-.784z" fill="#0e0f2d"/><path d="m112.396 205.46c-.101.56-.091 1.133.029 1.689s.348 1.082.671 1.549c.323.468.735.867 1.212 1.174.477.308 1.009.518 1.568.62.558.101 1.13.091 1.685-.03.554-.12 1.079-.349 1.545-.673s.864-.737 1.171-1.215c.307-.479.516-1.013.617-1.572.425-2.352-1.389-3.184-3.736-3.61-2.347-.425-4.337-.283-4.762 2.068z" fill="#fff"/><path d="m397.507 199.693 4.755-2.996c.234-2.654.318-5.319.252-7.982l-2.461.614 2.435-1.534c-.114-3.292-.398-5.466-.398-5.466s-9.616 6.177-15.776 14.592l.999 7.154-2.454-5.014c-.642 1.016-1.219 2.071-1.728 3.159-5.1 10.989-5.653 21.566-1.235 23.625s12.133-5.18 17.232-16.169c1.581-3.406 2.466-7.329 2.935-11.12z" fill="#e6e6e6"/><path d="m407.174 210.388 5.616-.101c1.569-2.151 3.015-4.389 4.333-6.703l-2.424-.749 2.875-.052c1.601-2.877 2.479-4.885 2.479-4.885s-11.418.307-21.031 4.319l-2.835 6.642.485-5.564c-1.073.537-2.111 1.142-3.108 1.809-10.033 6.766-15.962 15.534-13.243 19.585 2.72 4.051 13.058 1.85 23.092-4.915 3.11-2.097 5.891-4.997 8.248-7.999z" fill="#e6e6e6"/><path d="m381.881 104.876c0-.716-.284-1.404-.79-1.911-.505-.506-1.191-.791-1.906-.791s-1.401.285-1.907.791c-.506.507-.79 1.195-.79 1.911v121.143c0 .716.284 1.404.79 1.91.506.507 1.192.792 1.907.792s1.401-.285 1.906-.792c.506-.506.79-1.194.79-1.91v-120.358" fill="#0e0f2d"/><path d="m320.428 156.048c1.431-3.753 1.639-7.16.463-7.61-1.175-.45-3.288 2.227-4.719 5.979s-1.639 7.159-.463 7.61c1.175.45 3.288-2.227 4.719-5.979z" fill="#0e0f2d"/><path d="m309.845 222.565c8.016 0 14.515-6.513 14.515-14.548 0-8.034-6.499-14.547-14.515-14.547-8.017 0-14.516 6.513-14.516 14.547 0 8.035 6.499 14.548 14.516 14.548z" fill="#0e0f2d"/><path d="m307.639 219.434h-4.41v7.918h4.41z" fill="#0e0f2d"/><path d="m316.459 219.434h-4.41v7.918h4.41z" fill="#0e0f2d"/><path d="m306.904 228.825c2.03 0 3.675-.618 3.675-1.381 0-.762-1.645-1.381-3.675-1.381-2.029 0-3.675.619-3.675 1.381 0 .763 1.646 1.381 3.675 1.381z" fill="#0e0f2d"/><path d="m315.724 228.641c2.03 0 3.675-.618 3.675-1.381s-1.645-1.381-3.675-1.381c-2.029 0-3.675.618-3.675 1.381s1.646 1.381 3.675 1.381z" fill="#0e0f2d"/><path d="m310.212 209.306c2.74 0 4.961-2.225 4.961-4.971s-2.221-4.972-4.961-4.972-4.961 2.226-4.961 4.972 2.221 4.971 4.961 4.971z" fill="#fff"/><path d="m310.211 205.992c.914 0 1.654-.742 1.654-1.657 0-.916-.74-1.658-1.654-1.658-.913 0-1.653.742-1.653 1.658 0 .915.74 1.657 1.653 1.657z" fill="#0e0f2d"/><path d="m295.763 194.489c-1.172-5.26 2.575-10.576 8.369-11.872 5.794-1.297 11.44 1.917 12.612 7.177 1.173 5.26-2.667 7.201-8.461 8.497-5.794 1.297-11.348 1.459-12.52-3.802z" fill="#e5e7eb"/><path d="m304.883 180.765c8.017 0 14.516-6.513 14.516-14.547 0-8.035-6.499-14.548-14.516-14.548-8.016 0-14.515 6.513-14.515 14.548 0 8.034 6.499 14.547 14.515 14.547z" fill="#0e0f2d"/><path d="m302.678 177.634h-4.409v7.918h4.409z" fill="#0e0f2d"/><path d="m311.498 177.634h-4.41v7.918h4.41z" fill="#0e0f2d"/><path d="m301.943 187.025c2.03 0 3.675-.618 3.675-1.381 0-.762-1.645-1.381-3.675-1.381-2.029 0-3.674.619-3.674 1.381 0 .763 1.645 1.381 3.674 1.381z" fill="#0e0f2d"/><path d="m310.763 186.841c2.03 0 3.675-.618 3.675-1.381s-1.645-1.381-3.675-1.381c-2.029 0-3.675.618-3.675 1.381s1.646 1.381 3.675 1.381z" fill="#0e0f2d"/><path d="m305.251 167.507c2.739 0 4.961-2.226 4.961-4.972s-2.222-4.972-4.961-4.972c-2.74 0-4.961 2.226-4.961 4.972s2.221 4.972 4.961 4.972z" fill="#fff"/><path d="m305.251 164.192c.913 0 1.654-.742 1.654-1.657 0-.916-.741-1.658-1.654-1.658s-1.654.742-1.654 1.658c0 .915.741 1.657 1.654 1.657z" fill="#0e0f2d"/><path d="m290.802 152.689c-1.172-5.26 2.575-10.576 8.369-11.872 5.794-1.297 11.44 1.917 12.613 7.177 1.172 5.261-2.668 7.201-8.462 8.497-5.794 1.297-11.347 1.459-12.52-3.802z" fill="#e5e7eb"/><path d="m295.092 162.585c.539-1.14-1.96-3.459-5.582-5.181-3.621-1.721-6.994-2.193-7.534-1.053-.539 1.139 1.96 3.458 5.582 5.18 3.621 1.721 6.994 2.193 7.534 1.054z" fill="#0e0f2d"/><path d="m297.753 171.466c0 1.423 3.658 4.235 7.717 4.235s7.865-4.009 7.865-5.432c0-1.424-3.806.276-7.865.276s-7.717-.503-7.717.921z" fill="#fff"/><path d="m306 213.5c0 1.424 1.441 1 5.5 1s5-.232 5-1.655c0-1.424-.724 0-4.783 0s-5.717-.769-5.717.655z" fill="#fff"/><path d="m347.273 186.199c1.117 0 2.022-.907 2.022-2.026 0-1.12-.905-2.027-2.022-2.027s-2.023.907-2.023 2.027c0 1.119.906 2.026 2.023 2.026z" fill="#60a5fa"/><path d="m352.781 169.839c1.116 0 2.022-.908 2.022-2.027s-.906-2.027-2.022-2.027c-1.117 0-2.023.908-2.023 2.027s.906 2.027 2.023 2.027z" fill="#60a5fa"/><path d="m354.47 152.298c.073-.275.11-.559.11-.844 0-1.38-.829-2.509-1.843-2.509h-1.724c-.129.298-.338.554-.603.742-.264.187-.576.297-.899.319h-.922c-.002.211-.024.421-.066.627h4.214c.796 0 1.477.698 1.733 1.665z" fill="#000" opacity=".2"/><path d="m416.276 111.305c-4.737-8.953-12.639-15.8099-22.158-19.2276-9.52-3.4177-19.969-3.1494-29.301.7523-9.333 3.9017-16.874 11.1553-21.148 20.3393-4.273 9.185-4.97 19.637-1.953 29.31h5.032c1.011 0 1.84 1.128 1.84 2.509h.923c1.015 0 1.844 1.128 1.844 2.51 0 1.378-.829 2.51-1.844 2.51h-.923c-.002.209-.024.419-.064.625h4.213c1.015 0 1.844 1.131 1.844 2.509 0 1.382-.829 2.51-1.844 2.51h-4.024c6.299 7.913 15.319 13.186 25.293 14.786 9.974 1.601 20.185-.586 28.635-6.132 8.45-5.547 14.531-14.053 17.053-23.856 2.522-9.802 1.303-20.195-3.418-29.145zm-27.59 33.69c-2.521 1.427-5.369 2.174-8.264 2.169-.58-.001-1.159-.03-1.736-.088-3.986-.418-7.693-2.25-10.45-5.165-2.756-2.916-4.382-6.724-4.584-10.735-.201-4.012 1.035-7.964 3.486-11.142 2.45-3.179 5.954-5.375 9.879-6.191 3.924-.817 8.011-.2 11.521 1.738 3.511 1.938 6.215 5.07 7.624 8.83 1.408 3.761 1.429 7.902.058 11.677s-4.043 6.934-7.534 8.907z" fill="#60a5fa"/><path d="m349.511 144.988c.796 0 1.476.697 1.733 1.665.073-.276.11-.56.11-.845 0-1.38-.83-2.509-1.843-2.509h-.922c0-1.38-.83-2.509-1.843-2.509h-5.031c-1.147-3.685-1.764-7.515-1.832-11.374-.007.301-.015.601-.015.903-.004 4.123.619 8.224 1.847 12.16h5.031c1.013 0 1.843 1.129 1.843 2.509z" fill="#000" opacity=".2"/><path d="m380.423 169.273c-5.723.006-11.382-1.205-16.603-3.553-5.222-2.348-9.887-5.779-13.687-10.068h-1.422c5.242 6.59 12.399 11.385 20.479 13.719 8.081 2.335 16.686 2.094 24.624-.688 7.938-2.783 14.817-7.97 19.683-14.843 4.867-6.874 7.481-15.093 7.481-23.521 0-.254-.007-.507-.011-.76-.243 10.616-4.62 20.714-12.197 28.136s-17.752 11.578-28.347 11.578z" fill="#0e0f2d" opacity=".2"/><path d="m380.422 110.096c-3.991.001-7.892 1.187-11.21 3.41-3.318 2.222-5.904 5.381-7.43 9.076-1.527 3.695-1.926 7.761-1.147 11.684s2.701 7.526 5.523 10.353c2.822 2.828 6.418 4.754 10.332 5.534s7.971.379 11.658-1.151c3.687-1.531 6.839-4.123 9.056-7.449 2.217-3.325 3.4-7.235 3.4-11.234-.006-5.362-2.135-10.503-5.918-14.294-3.784-3.791-8.914-5.924-14.264-5.929zm8.264 34.899c-2.521 1.427-5.368 2.174-8.264 2.169-.58-.001-1.159-.03-1.736-.088-3.986-.418-7.692-2.25-10.449-5.165-2.757-2.916-4.383-6.724-4.585-10.735-.201-4.012 1.035-7.964 3.486-11.142 2.451-3.179 5.955-5.375 9.879-6.191 3.925-.817 8.011-.2 11.522 1.738 3.51 1.938 6.214 5.07 7.623 8.83 1.409 3.761 1.429 7.902.058 11.677-1.37 3.775-4.043 6.934-7.534 8.907z" fill="#0e0f2d" opacity=".2"/><path d="m416.276 110.63v6.761c0 .494-.147.976-.422 1.386-.276.409-.668.726-1.125.91s-.958.227-1.44.123c-.481-.104-.921-.35-1.261-.707v.77c0 .779-.309 1.526-.859 2.077-.549.551-1.295.86-2.072.86s-1.522-.309-2.072-.86-.858-1.298-.858-2.077v-.642c-.355.32-.794.53-1.265.604-.471.075-.954.011-1.389-.184s-.805-.512-1.064-.913c-.26-.401-.397-.869-.397-1.347l-.117-7.186v-1.657c0-.266-.105-.521-.293-.708-.187-.188-.441-.294-.706-.294s-.52.106-.707.294c-.187.187-.293.442-.293.708v1.657l-.117 6.008c0 .656-.26 1.286-.723 1.75s-1.091.724-1.746.724c-.654 0-1.282-.26-1.745-.724s-.723-1.094-.723-1.75l-.302-6.008v-3.071c0-.435-.173-.853-.48-1.16-.307-.308-.724-.481-1.158-.481s-.851.173-1.158.481c-.307.307-.479.725-.479 1.16v3.071l-.185 6.008c.001.515-.159 1.017-.457 1.436s-.719.734-1.204.903c-.485.168-1.011.18-1.503.034-.492-.145-.927-.441-1.244-.846-.39.5-.958.83-1.585.922-.627.091-1.265-.064-1.782-.432v1.643c0 .779-.308 1.526-.858 2.077s-1.295.86-2.072.86-1.523-.309-2.072-.86c-.55-.551-.859-1.298-.859-2.077v-5.073c0 .566-.193 1.114-.548 1.555-.355.44-.85.745-1.402.863-.552.119-1.128.044-1.632-.211-.504-.256-.905-.677-1.136-1.193v4.059c-.001.779-.31 1.525-.86 2.075-.549.55-1.294.859-2.071.859-.776 0-1.521-.309-2.071-.859-.549-.55-.858-1.296-.859-2.075v-9.668h-.017v9.668c0 .779-.309 1.526-.858 2.077-.55.551-1.295.86-2.072.86-.778 0-1.523-.309-2.073-.86-.549-.551-.858-1.298-.858-2.077v-4.025c-.238.51-.642.923-1.145 1.171-.504.249-1.078.318-1.626.195-.548-.122-1.038-.428-1.389-.867s-.542-.985-.542-1.547v-4.595h-.251v8.255c0 .779-.309 1.526-.859 2.077-.549.55-1.295.86-2.072.86s-1.523-.31-2.072-.86c-.55-.551-.858-1.298-.858-2.077v-3.66c0 .656-.261 1.285-.724 1.749-.462.464-1.09.724-1.745.724s-1.283-.26-1.746-.724-.723-1.093-.723-1.749v-5.447c3.621-6.294 8.858-11.5016 15.168-15.0799 6.309-3.5783 13.46-5.3969 20.708-5.2666 7.249.1304 14.33 2.205 20.507 6.0079 6.178 3.8029 11.225 9.1956 14.618 15.6156z" fill="#fff"/><g fill="#000"><path d="m363.958 121.397c-.385 0-.766-.076-1.122-.224-.355-.147-.678-.364-.95-.636-.273-.273-.488-.597-.636-.953-.147-.357-.223-.739-.223-1.124v1.531c0 .779.309 1.526.859 2.077.549.551 1.295.86 2.072.86s1.523-.309 2.072-.86c.55-.551.858-1.298.858-2.077v-1.531c0 .385-.075.767-.223 1.124-.147.356-.363.68-.635.953-.272.272-.595.489-.951.636-.355.148-.736.224-1.121.224z" opacity=".2"/><path d="m369.835 121.397c-.385 0-.766-.076-1.121-.224-.356-.147-.679-.364-.951-.636-.272-.273-.488-.597-.635-.953-.147-.357-.223-.739-.223-1.124v1.531c0 .779.309 1.526.858 2.077.55.551 1.295.86 2.072.86.778 0 1.523-.309 2.073-.86.549-.551.858-1.298.858-2.077v-1.531c0 .385-.076.767-.223 1.124-.147.356-.363.68-.635.953-.273.272-.596.489-.951.636-.356.148-.737.224-1.122.224z" opacity=".2"/><path d="m361.027 114.434c-.238.51-.642.923-1.145 1.172-.504.248-1.077.317-1.626.195-.548-.122-1.038-.428-1.389-.867s-.542-.985-.542-1.548v1.531c0 .563.191 1.109.542 1.548s.841.745 1.389.867c.549.122 1.122.054 1.626-.195.503-.248.907-.661 1.145-1.171z" opacity=".2"/><path d="m366.905 108.791h-.017v1.532h.017z" opacity=".2"/><path d="m350.213 113.386c0 .656-.261 1.285-.724 1.749-.462.464-1.09.725-1.745.725s-1.283-.261-1.746-.725-.723-1.093-.723-1.749v1.531c0 .656.26 1.286.723 1.75s1.091.724 1.746.724 1.283-.26 1.745-.724c.463-.464.724-1.094.724-1.75z" opacity=".2"/><path d="m356.325 108.791h-.251v1.532h.251z" opacity=".2"/><path d="m353.143 119.983c-.385 0-.766-.076-1.122-.223-.355-.148-.678-.364-.95-.637s-.488-.597-.636-.953c-.147-.356-.223-.738-.223-1.124v1.532c0 .779.309 1.526.859 2.076.549.551 1.295.86 2.072.86s1.523-.309 2.072-.86c.55-.55.858-1.297.858-2.076v-1.532c0 .386-.075.768-.223 1.124-.147.356-.363.68-.635.953s-.595.489-.951.637c-.355.147-.736.223-1.121.223z" opacity=".2"/><path d="m380.415 121.397c-.385 0-.766-.076-1.122-.224-.355-.147-.678-.364-.95-.636-.272-.273-.488-.597-.636-.953-.147-.357-.223-.739-.223-1.124v1.531c0 .779.309 1.526.859 2.077.549.551 1.295.86 2.072.86s1.523-.309 2.072-.86c.55-.551.858-1.298.858-2.077v-1.531c0 .385-.075.767-.223 1.124-.147.356-.363.68-.635.953-.272.272-.595.489-.951.636-.355.148-.736.224-1.121.224z" opacity=".2"/><path d="m401.935 107.134c0-.266-.105-.52-.293-.708-.187-.188-.441-.293-.706-.293s-.519.105-.707.293c-.187.188-.292.442-.292.708v1.531c0-.265.105-.52.292-.708.188-.187.442-.293.707-.293s.519.106.706.293c.188.188.293.443.293.708z" opacity=".2"/><path d="m377.484 113.386c0 .566-.193 1.115-.548 1.555s-.85.745-1.402.864-1.128.044-1.632-.212c-.504-.255-.905-.677-1.136-1.193v1.532c.231.516.632.937 1.136 1.193.504.255 1.08.33 1.632.211.552-.118 1.047-.423 1.402-.864.355-.44.548-.989.548-1.555z" opacity=".2"/><path d="m397.35 117.273c-.324.001-.645-.063-.944-.188-.3-.124-.572-.306-.801-.536-.23-.23-.411-.502-.535-.803-.125-.3-.188-.622-.188-.946l-.302-6.009v1.532l.302 6.008c0 .656.26 1.285.723 1.749s1.091.725 1.745.725c.655 0 1.283-.261 1.746-.725s.723-1.093.723-1.749l.117-6.008v-1.532l-.117 6.009c0 .324-.064.646-.188.946-.124.301-.306.573-.535.803s-.501.412-.801.536c-.3.125-.621.189-.945.188z" opacity=".2"/><path d="m413.808 118.452c-.333 0-.662-.068-.968-.199s-.582-.323-.812-.564v.771c0 .779-.309 1.526-.858 2.077-.55.55-1.295.86-2.073.86-.777 0-1.522-.31-2.072-.86-.549-.551-.858-1.298-.858-2.077v-.642c-.355.319-.794.529-1.265.603-.471.075-.953.011-1.389-.184-.435-.195-.805-.512-1.064-.913s-.397-.869-.396-1.346l-.118-7.187v1.532l.118 7.186c-.001.478.137.946.396 1.347s.629.718 1.064.913c.436.194.918.258 1.389.184.471-.075.91-.284 1.265-.604v.642c0 .779.309 1.526.858 2.077.55.551 1.295.86 2.072.86.778 0 1.523-.309 2.073-.86.549-.551.858-1.298.858-2.077v-.77c.341.356.78.602 1.262.707.481.104.983.061 1.44-.123.457-.185.848-.502 1.124-.911.275-.409.423-.891.422-1.385v-1.531c0 .325-.064.646-.188.946-.124.301-.305.573-.535.803-.229.23-.501.412-.801.536-.299.125-.62.189-.944.189z" opacity=".2"/><path d="m388.651 117.274c-.373 0-.742-.086-1.078-.25s-.631-.403-.861-.698c-.391.501-.958.831-1.585.922s-1.266-.063-1.782-.432v1.532c.516.368 1.155.523 1.782.431.627-.091 1.194-.421 1.585-.921.317.405.751.701 1.244.846.492.146 1.018.133 1.503-.035s.906-.483 1.204-.902c.298-.42.457-.921.457-1.436l.185-6.008v-1.532l-.185 6.009c0 .324-.064.646-.188.946-.124.301-.306.573-.535.803s-.501.412-.801.536c-.299.125-.62.189-.945.189z" opacity=".2"/><path d="m394.58 105.72c0-.435-.172-.852-.479-1.16-.308-.308-.724-.481-1.158-.481-.435 0-.851.173-1.158.481s-.48.725-.48 1.16v1.532c0-.436.173-.853.48-1.161.307-.307.723-.48 1.158-.48.434 0 .85.173 1.158.48.307.308.479.725.479 1.161z" opacity=".2"/></g><path d="m367.199 106.023h-.588v3.181h.588z" fill="#3f3d56"/><path d="m378.307 104.315h-.588v3.181h.588z" fill="#3f3d56"/><path d="m409.341 106.2h-.588v3.181h.588z" fill="#3f3d56"/><path d="m364.201 116.802h-.588v3.181h.588z" fill="#3f3d56"/><path d="m388.209 111.244-.483-.335-1.806 2.616.484.335z" fill="#3f3d56"/><path d="m357.085 106.219-.364.462 2.489 1.973.364-.461z" fill="#3f3d56"/><path d="m391.645 94.3204-.365.462 2.489 1.9736.365-.4619z" fill="#3f3d56"/><path d="m350.62 109.519-.365.462 2.489 1.973.365-.462z" fill="#3f3d56"/><path d="m369.373 98.5423h-.587v3.1807h.587z" fill="#e5e7eb"/><path d="m353.269 114.917h-.588v3.181h.588z" fill="#e5e7eb"/><path d="m380.776 93.9478h-.588v3.1808h.588z" fill="#e5e7eb"/><path d="m408.988 113.857h-.588v3.181h.588z" fill="#e5e7eb"/><path d="m384.042 105.087-.525-.264-1.423 2.843.525.264z" fill="#e5e7eb"/><path d="m381.339 116.868-.526-.265-1.423 2.843.526.265z" fill="#e5e7eb"/><path d="m413.783 111.566-.526-.264-1.423 2.843.525.264z" fill="#e5e7eb"/><path d="m373.259 110.402-.39.441 2.375 2.11.39-.441z" fill="#e5e7eb"/><path d="m361.622 96.6189-.39.4408 2.375 2.1101.39-.4408z" fill="#e5e7eb"/><path d="m400.296 101.92-.39.441 2.375 2.11.39-.441z" fill="#e5e7eb"/><path d="m386.072 91.5533-.39.4407 2.375 2.1101.39-.4407z" fill="#e5e7eb"/><path d="m373.84 104.315h-.588v3.181h.588z" fill="#ff6584"/><path d="m406.999 106.323-.541-.23-1.24 2.928.541.23z" fill="#ff6584"/><path d="m362.075 109.446-.509.295 1.587 2.754.509-.294z" fill="#ff6584"/><path d="m395.695 107.208-.509.294 1.587 2.755.509-.294z" fill="#ff6584"/><path d="m374.771 95.5451-.509.2946 1.587 2.7546.509-.2945z" fill="#ff6584"/><path d="m399.691 94.9561-.509.2945 1.587 2.7547.509-.2946z" fill="#ff6584"/><path d="m367.365 92.3644-.509.2945 1.587 2.7546.509-.2945z" fill="#ff6584"/><path d="m388.534 97.9533h-.588v3.1807h.588z" fill="#ff6584"/><path d="m354.68 103.255h-.588v3.18h.588z" fill="#ff6584"/><path d="m347.744 161.476c1.117 0 2.023-.908 2.023-2.027s-.906-2.027-2.023-2.027c-1.116 0-2.022.908-2.022 2.027s.906 2.027 2.022 2.027z" fill="#60a5fa"/><path d="m330.287 216.182 1.088 3.944 7.05-1.953-1.088-3.944z" fill="#0e0f2d"/><path d="m330.775 220.822c.68-.189.824-1.812.324-3.627-.501-1.815-1.457-3.134-2.136-2.946-.68.188-.824 1.812-.324 3.627.501 1.815 1.457 3.134 2.136 2.946z" fill="#0e0f2d"/><path d="m352.542 202.62c.498-3.686-.033-6.8-1.188-6.957-1.154-.157-2.494 2.704-2.993 6.389-.498 3.685.034 6.8 1.188 6.956 1.155.157 2.494-2.703 2.993-6.388z" fill="#0e0f2d"/><path d="m349.136 228.41c7.422 0 13.438-6.03 13.438-13.468s-6.016-13.467-13.438-13.467-13.438 6.029-13.438 13.467 6.016 13.468 13.438 13.468z" fill="#0e0f2d"/><path d="m330.287 213.796 1.088 3.943 7.05-1.953-1.088-3.943z" fill="#0e0f2d"/><path d="m330.775 218.437c.679-.188.824-1.812.323-3.627-.5-1.815-1.457-3.134-2.136-2.946s-.824 1.812-.323 3.627c.5 1.815 1.457 3.134 2.136 2.946z" fill="#0e0f2d"/><path d="m352.665 211.83c2.536 0 4.592-2.061 4.592-4.603s-2.056-4.603-4.592-4.603c-2.537 0-4.593 2.061-4.593 4.603s2.056 4.603 4.593 4.603z" fill="#fff"/><path d="m354.133 206.728c.846 0 1.531-.687 1.531-1.534 0-.848-.685-1.534-1.531-1.534-.845 0-1.53.686-1.53 1.534 0 .847.685 1.534 1.53 1.534z" fill="#0e0f2d"/><path d="m364.654 224.197c4.973-.25 8.782-4.911 8.507-10.412s-4.529-9.758-9.501-9.509c-4.973.25-5.754 4.162-5.479 9.663s1.5 10.507 6.473 10.258z" fill="#e5e7eb"/><path d="m343.644 209.244c-.81.066-1.612-.194-2.231-.721-.618-.527-1.003-1.279-1.068-2.09-.066-.811.193-1.615.719-2.235s1.276-1.005 2.086-1.071c1.685-.137 2.145 1.204 2.281 2.893.137 1.69-.102 3.087-1.787 3.224z" fill="#fff"/><path d="m347.498 205.82c.498-3.686-.033-6.8-1.188-6.957-1.154-.157-2.494 2.704-2.992 6.389-.499 3.685.033 6.8 1.187 6.957 1.155.156 2.495-2.704 2.993-6.389z" fill="#0e0f2d"/><path d="m346.261 199.372c1.117 0 2.022-.907 2.022-2.026s-.905-2.027-2.022-2.027-2.022.908-2.022 2.027.905 2.026 2.022 2.026z" fill="#60a5fa"/><path d="m334.477 150.726c.046-.356.016-.718-.089-1.062s-.283-.661-.52-.93c-.238-.27-.53-.485-.857-.632-.328-.146-.683-.221-1.041-.219h-.801c.194-.364.295-.77.295-1.182-.002-.671-.269-1.315-.742-1.789-.474-.475-1.116-.743-1.786-.744h-8.426c-.67 0-1.313.266-1.787.742-.474.475-.741 1.119-.741 1.791s.267 1.316.741 1.791 1.117.742 1.787.742h.801c-.194.364-.295.77-.295 1.182.002.527.167 1.04.473 1.469.305.429.736.751 1.233.924-.046.356-.016.718.089 1.062s.282.661.52.93c.237.27.529.485.857.632.327.146.682.221 1.041.219h8.426c.598 0 1.177-.212 1.633-.599.457-.387.762-.924.86-1.515.099-.591-.015-1.198-.321-1.713s-.785-.904-1.35-1.099z" fill="#60a5fa"/><path d="m250.346 184.219 2.441-9.649c4.328-1.838 8.756-3.43 13.263-4.769l.308 4.484 1.25-4.94c5.59-1.599 9.392-2.304 9.392-2.304s-5.136 19.575-15.909 34.54l-12.554 2.21 9.753 1.409c-1.356 1.635-2.813 3.182-4.363 4.633-15.672 14.579-33.128 21.268-38.988 14.94-5.861-6.328 2.093-23.276 17.765-37.854 4.858-4.52 10.962-8.147 17.071-11.001z" fill="#e6e6e6"/><path d="m227.131 173.741-2.887-9.525c2.757-3.815 5.726-7.472 8.894-10.953l2.577 3.679-1.478-4.876c3.96-4.265 6.851-6.838 6.851-6.838s5.7 19.418 4.196 37.809l-9.606 8.395 9.075-3.846c-.318 2.102-.767 4.181-1.345 6.226-5.897 20.599-17.39 35.367-25.67 32.987-8.281-2.381-10.214-21.01-4.317-41.608 1.828-6.386 5.182-12.653 8.94-18.261z" fill="#e6e6e6"/><path d="m49.0007 217.235-.5781-2.285c-1.0252-.436-2.074-.813-3.1415-1.13l-.073 1.062-.296-1.17c-1.3239-.379-2.2246-.546-2.2246-.546s1.2166 4.637 3.7682 8.181l2.9733.524-2.3098.333c.3211.388.6662.754 1.0332 1.098 3.7119 3.453 7.8464 5.037 9.2345 3.538 1.3881-1.498-.4958-5.513-4.2077-8.966-1.1508-1.07-2.5964-1.929-4.0434-2.605z" fill="#e6e6e6"/><path d="m54.4991 214.753.6838-2.256c-.653-.903-1.3563-1.769-2.1067-2.594l-.6103.872.3501-1.155c-.9379-1.011-1.6228-1.62-1.6228-1.62s-1.3499 4.599-.9937 8.955l2.2753 1.988-2.1495-.91c.0752.497.1816.99.3185 1.474 1.3966 4.879 4.1188 8.377 6.08 7.813 1.9613-.564 2.4191-4.976 1.0225-9.855-.433-1.512-1.2274-2.997-2.1174-4.325z" fill="#e6e6e6"/><path d="m208 15.9154c0-1.3037.579-2.5539 1.611-3.4757 1.031-.9218 2.43-1.4397 3.889-1.4397s2.858.5179 3.889 1.4397c1.032.9218 1.611 2.172 1.611 3.4757v207.1696c0 .645-.142 1.284-.419 1.881-.276.596-.681 1.138-1.192 1.594-.511.457-1.117.819-1.784 1.066-.668.247-1.383.374-2.105.374s-1.437-.127-2.105-.374c-.667-.247-1.273-.609-1.784-1.066-.511-.456-.916-.998-1.192-1.594-.277-.597-.419-1.236-.419-1.881v-205.742" fill="#0e0f2d"/><path d="m186.958 19.4598.722-.3631 1.957 3.9087-.722.3632z" fill="#fff"/><path d="m176.038 22.2236h.76v4.1098h-.76z" fill="#3f3d56"/><path d="m176.494 32.1177h.759v4.1098h-.759z" fill="#fff"/><path d="m167.077 28.5794c5.983-11.34 15.899-20.09437 27.878-24.61182 11.98-4.517457 25.195-4.485768 37.152.08909 11.958 4.57485 21.832 13.37663 27.76 24.74523 5.929 11.3686 7.501 24.5182 4.421 36.9686s-10.6 23.3411-21.14 30.6178c-10.541 7.2767-23.374 10.4367-36.08 8.8837-12.705-1.553-24.404-7.7117-32.891-17.3142-8.486-9.6024-13.173-21.9851-13.177-34.8124-.003-8.5628 2.083-16.9965 6.077-24.566zm35.649 43.5266c4.157 2.3512 8.97 3.2652 13.696 2.6006 4.727-.6646 9.103-2.8707 12.454-6.2774 3.35-3.4066 5.488-7.8243 6.082-12.5702.594-4.746-.387-9.556-2.794-13.6868-2.406-4.1308-6.103-7.3524-10.519-9.1671-4.416-1.8146-9.305-2.1212-13.912-.8723-4.608 1.2488-8.676 3.9835-11.577 7.7815-2.902 3.798-4.474 8.4479-4.474 13.2311-.012 3.8599 1.006 7.6528 2.948 10.9863 1.941 3.3336 4.737 6.0866 8.096 7.9743z" fill="#60a5fa"/><path d="m213.554 102.31c13.614 0 26.694-5.3107 36.469-14.8069 9.776-9.4962 15.479-22.4325 15.904-36.0697.018.5681.027 1.1383.028 1.7107.001 6.8974-1.353 13.7276-3.985 20.1005-2.633 6.3728-6.493 12.1635-11.359 17.0413s-10.643 8.7471-17.001 11.3871c-6.359 2.64-13.174 3.999-20.056 3.999-6.883 0-13.698-1.359-20.056-3.999s-12.135-6.5093-17.001-11.3871c-4.867-4.8778-8.726-10.6685-11.359-17.0413-2.632-6.3729-3.986-13.2031-3.985-20.1005 0-.5731.009-1.144.028-1.7127.424 13.6375 6.127 26.5744 15.903 36.071 9.775 9.4966 22.855 14.8076 36.47 14.8076z" fill="#0e0f2d" opacity=".2"/><path d="m213.402 26.9407c5.171.0003 10.226 1.5373 14.526 4.4166 4.299 2.8794 7.65 6.9718 9.629 11.7597 1.979 4.788 2.496 10.0564 1.487 15.1392s-3.499 9.7516-7.155 13.4161c-3.657 3.6645-8.315 6.1601-13.387 7.1712s-10.329.4923-15.107-1.4908c-4.777-1.983-8.861-5.3413-11.734-9.6502s-4.407-9.3748-4.407-14.5572c.008-6.9475 2.765-13.6083 7.667-18.5209 4.902-4.9127 11.549-7.676 18.481-7.6837zm-10.676 45.1653c4.157 2.3512 8.97 3.2651 13.696 2.6006 4.727-.6646 9.104-2.8707 12.454-6.2774s5.488-7.8243 6.082-12.5702c.594-4.746-.387-9.556-2.794-13.6868-2.406-4.1308-6.103-7.3525-10.519-9.1671s-9.305-2.1212-13.912-.8724c-4.607 1.2489-8.676 3.9836-11.577 7.7816-2.902 3.798-4.474 8.4479-4.474 13.231-.012 3.86 1.006 7.6529 2.948 10.9864 1.941 3.3335 4.737 6.0865 8.096 7.9743z" fill="#0e0f2d" opacity=".2"/><path d="m167.077 27.9485v8.7356c-.001.6379.189 1.2612.546 1.7899.356.5286.862.9382 1.452 1.1761.591.238 1.239.2933 1.861.1588.622-.1344 1.19-.4524 1.63-.9131v.9955c0 1.0065.399 1.9717 1.109 2.6833.71.7117 1.673 1.1115 2.677 1.1115 1.005 0 1.968-.3998 2.678-1.1115.71-.7116 1.109-1.6768 1.109-2.6833v-.8295c.458.4129 1.026.6838 1.634.7799.609.0962 1.232.0135 1.795-.2382.562-.2516 1.04-.6613 1.375-1.1794.335-.5182.513-1.1225.512-1.7399l.152-9.2852v-2.1417c0-.3428.137-.6714.379-.9136s.57-.3782.912-.3782.67.136.912.3782.378.5708.379.9136v2.1417l.152 7.763c0 .8478.336 1.6608.934 2.2603s1.409.9362 2.255.9362 1.658-.3367 2.256-.9362.934-1.4125.934-2.2603l.39-7.763v-3.9683c0-.5624.223-1.1017.62-1.4993.397-.3977.935-.6211 1.496-.6211s1.099.2234 1.496.6211c.397.3976.62.9369.62 1.4993v3.9683l.238 7.763c0 .6648.206 1.3132.591 1.8548s.928.9494 1.555 1.1665c.627.2172 1.306.2329 1.943.0449.636-.188 1.198-.5702 1.607-1.0935.504.6463 1.238 1.0728 2.048 1.1907.811.118 1.635-.0817 2.302-.5575v2.1234c0 1.0065.399 1.9717 1.109 2.6833.71.7117 1.673 1.1115 2.678 1.1115 1.004 0 1.967-.3998 2.677-1.1115.71-.7116 1.109-1.6768 1.109-2.6833v-6.5559c0 .7313.25 1.4405.708 2.0093.459.5688 1.098.9628 1.812 1.1162.713.1533 1.458.0568 2.109-.2735s1.169-.8744 1.468-1.5414v5.2453c0 1.0065.399 1.9717 1.109 2.6833.71.7117 1.673 1.1115 2.677 1.1115 1.005 0 1.968-.3998 2.678-1.1115.71-.7116 1.109-1.6768 1.109-2.6833v-12.4923h.021v12.4923c0 1.0065.399 1.9717 1.109 2.6833.71.7117 1.673 1.1115 2.678 1.1115 1.004 0 1.967-.3998 2.677-1.1115.71-.7116 1.109-1.6768 1.109-2.6833v-5.2012c.307.6586.83 1.1926 1.481 1.5136.65.321 1.391.4099 2.099.252s1.342-.5532 1.795-1.1205c.454-.5673.701-1.2728.701-1.9998v-5.9364h.325v10.6658c0 1.0064.399 1.9716 1.109 2.6833.71.7116 1.673 1.1114 2.677 1.1114s1.968-.3998 2.678-1.1114c.71-.7117 1.109-1.6769 1.109-2.6833v-4.7294c-.001.42.081.836.242 1.2242.16.3882.395.741.691 1.0381.296.2972.648.5329 1.035.6938.387.1608.802.2436 1.221.2436s.834-.0828 1.222-.2436c.387-.1609.739-.3966 1.035-.6938.296-.2971.531-.6499.691-1.0381s.242-.8042.242-1.2242v-7.037c-4.678-8.1332-11.445-14.8615-19.598-19.48508-8.152-4.62354-17.392-6.973312-26.757-6.80485952-9.366.16845252-18.516 2.84897952-26.497 7.76269952-7.982 4.91374-14.504 11.88114-18.887 20.17734z" fill="#fff"/><path d="m234.677 41.8595c.497 0 .99-.0981 1.449-.2888s.877-.4702 1.228-.8226c.352-.3524.631-.7707.821-1.2311.191-.4605.288-.9539.288-1.4523v1.9788c0 1.0065-.399 1.9717-1.109 2.6833-.71.7117-1.673 1.1115-2.677 1.1115s-1.968-.3998-2.678-1.1115c-.71-.7116-1.109-1.6768-1.109-2.6833v-1.9788c0 .4984.098.9918.288 1.4523.191.4604.47.8787.821 1.2311.352.3524.769.6319 1.229.8226.459.1907.952.2888 1.449.2888z" fill="#000" opacity=".2"/><path d="m227.082 41.8595c.497 0 .99-.0981 1.449-.2888.46-.1907.877-.4702 1.229-.8226.351-.3524.63-.7707.821-1.2311.19-.4605.288-.9539.288-1.4523v1.9788c0 1.0065-.399 1.9717-1.109 2.6833-.711.7117-1.674 1.1115-2.678 1.1115s-1.967-.3998-2.677-1.1115c-.71-.7116-1.109-1.6768-1.109-2.6833v-1.9788c0 .4984.097.9918.288 1.4523.19.4604.469.8787.821 1.2311.351.3524.769.6319 1.228.8226s.952.2888 1.449.2888z" fill="#000" opacity=".2"/><path d="m238.463 32.8635c.307.6586.83 1.1926 1.48 1.5136.651.321 1.392.4099 2.1.252s1.342-.5532 1.795-1.1205c.454-.5673.701-1.2728.701-1.9998v1.9788c0 .7271-.247 1.4325-.701 1.9998-.453.5673-1.087.9626-1.795 1.1205s-1.449.069-2.1-.252c-.65-.321-1.173-.8549-1.48-1.5136z" fill="#000" opacity=".2"/><path d="m230.869 25.5724h.022v1.9788h-.022z" fill="#000" opacity=".2"/><path d="m252.437 31.5088c.001.8472.337 1.6595.935 2.2582.598.5988 1.409.9352 2.254.9352.846 0 1.657-.3364 2.255-.9352.598-.5987.934-1.411.935-2.2582v1.9788c-.001.8472-.337 1.6595-.935 2.2583-.598.5987-1.409.9351-2.255.9351-.845 0-1.656-.3364-2.254-.9351-.598-.5988-.934-1.4111-.935-2.2583z" fill="#000" opacity=".2"/><path d="m244.538 25.5724h.325v1.9788h-.325z" fill="#000" opacity=".2"/><path d="m248.65 40.0329c.497 0 .99-.0981 1.449-.2888.46-.1907.877-.4702 1.229-.8226.351-.3524.63-.7707.82-1.2311.191-.4604.289-.9539.289-1.4523v1.9789c0 1.0064-.399 1.9716-1.11 2.6833-.71.7116-1.673 1.1114-2.677 1.1114s-1.967-.3998-2.677-1.1114c-.711-.7117-1.11-1.6769-1.11-2.6833v-1.9789c0 .4984.098.9919.289 1.4523.19.4604.469.8787.82 1.2311.352.3524.77.6319 1.229.8226s.952.2888 1.449.2888z" fill="#000" opacity=".2"/><path d="m213.413 41.8595c.497 0 .989-.0981 1.449-.2888.459-.1907.877-.4702 1.228-.8226.352-.3524.631-.7707.821-1.2311.19-.4605.288-.9539.288-1.4523v1.9788c0 1.0065-.399 1.9717-1.109 2.6833-.71.7117-1.673 1.1115-2.677 1.1115-1.005 0-1.968-.3998-2.678-1.1115-.71-.7116-1.109-1.6768-1.109-2.6833v-1.9788c0 .4984.098.9918.288 1.4523.191.4604.47.8787.821 1.2311.352.3524.769.6319 1.229.8226.459.1907.951.2888 1.449.2888z" fill="#000" opacity=".2"/><path d="m185.606 23.4307c0-.3432.136-.6723.379-.9149.242-.2426.57-.379.912-.379.343 0 .671.1364.913.379s.378.5717.378.9149v1.9788c.001-.1701-.032-.3385-.097-.4958-.065-.1572-.16-.3-.28-.4204-.12-.1203-.262-.2158-.419-.281-.157-.0651-.325-.0987-.495-.0987-.169 0-.337.0336-.494.0987-.157.0652-.299.1607-.419.281-.12.1204-.215.2632-.28.4204-.065.1573-.098.3257-.098.4958z" fill="#000" opacity=".2"/><path d="m217.199 31.5088c0 .7313.25 1.4405.708 2.0093.459.5688 1.098.9628 1.812 1.1162.713.1533 1.458.0568 2.109-.2735s1.169-.8744 1.468-1.5414v1.9788c-.299.667-.817 1.2111-1.468 1.5414s-1.396.4268-2.109.2735c-.714-.1534-1.353-.5474-1.812-1.1162-.458-.5688-.708-1.278-.708-2.0093z" fill="#000" opacity=".2"/><path d="m191.53 36.5319c.419.0001.834-.0826 1.221-.2432s.739-.3961 1.035-.6929.531-.6492.691-1.0371c.161-.3878.243-.8035.243-1.2233l.39-7.763v1.9788l-.39 7.763c0 .8478-.336 1.6608-.934 2.2603s-1.41.9363-2.256.9363-1.657-.3368-2.255-.9363-.934-1.4125-.934-2.2603l-.152-7.763v-1.9788l.152 7.763c0 .4198.082.8355.242 1.2233.161.3879.396.7403.692 1.0371s.648.5323 1.035.6929.802.2433 1.22.2432z" fill="#000" opacity=".2"/><path d="m170.266 38.0541c.43.0001.856-.0871 1.251-.2563.395-.1693.752-.4171 1.049-.7286v.9955c0 1.0065.399 1.9717 1.109 2.6833.71.7117 1.673 1.1115 2.678 1.1115 1.004 0 1.967-.3998 2.677-1.1115.71-.7116 1.109-1.6768 1.109-2.6833v-.8295c.458.4128 1.026.6838 1.634.7799.609.0962 1.232.0134 1.795-.2382.562-.2516 1.04-.6613 1.375-1.1794.335-.5182.513-1.1225.512-1.7399l.152-9.2852v1.9788l-.152 9.2852c.001.6174-.177 1.2217-.512 1.7399-.335.5181-.813.9278-1.375 1.1795-.563.2516-1.186.3343-1.795.2382-.608-.0962-1.176-.3671-1.634-.78v.8296c0 1.0064-.399 1.9716-1.109 2.6833-.71.7116-1.673 1.1114-2.677 1.1114-1.005 0-1.968-.3998-2.678-1.1114-.71-.7117-1.109-1.6769-1.109-2.6833v-.9955c-.44.4606-1.008.7786-1.63.9131-.622.1344-1.27.0791-1.861-.1588-.59-.238-1.096-.6476-1.452-1.1762-.357-.5286-.547-1.152-.546-1.7898v-1.9789c0 .4198.082.8355.243 1.2234.16.3878.395.7402.691 1.0371.296.2968.648.5323 1.035.6929s.802.2432 1.22.2432z" fill="#000" opacity=".2"/><path d="m202.77 36.5319c.483.0001.96-.1101 1.394-.3222.434-.212.814-.5203 1.112-.9016.504.6463 1.238 1.0728 2.048 1.1907.811.118 1.635-.0817 2.302-.5575v1.9789c-.667.4757-1.491.6754-2.302.5574-.81-.1179-1.544-.5444-2.048-1.1907-.409.5233-.971.9055-1.607 1.0935-.637.188-1.316.1723-1.943-.0449-.627-.2171-1.17-.6249-1.555-1.1665s-.591-1.19-.591-1.8548l-.238-7.763v-1.9788l.238 7.763c0 .4198.083.8355.243 1.2233.16.3879.395.7403.691 1.0371.297.2968.648.5323 1.035.6929s.802.2433 1.221.2432z" fill="#000" opacity=".2"/><path d="m195.111 21.6041c0-.5624.223-1.1017.619-1.4994.397-.3976.935-.621 1.497-.621.561 0 1.099.2234 1.496.621.396.3977.619.937.619 1.4994v1.9788c0-.5624-.223-1.1017-.619-1.4993-.397-.3977-.935-.6211-1.496-.6211-.562 0-1.1.2234-1.497.6211-.396.3976-.619.9369-.619 1.4993z" fill="#000" opacity=".2"/><path d="m230.489 21.9953h.76v4.1098h-.76z" fill="#3f3d56"/><path d="m216.136 19.7881h.76v4.1099h-.76z" fill="#3f3d56"/><path d="m234.362 35.9231h.76v4.1098h-.76z" fill="#3f3d56"/><path d="m203.342 28.7417.624-.4331 2.334 3.3798-.625.433z" fill="#3f3d56"/><path d="m243.557 22.2484.471.5968-3.216 2.5501-.471-.5968z" fill="#3f3d56"/><path d="m198.902 6.87455.472.59686-3.216 2.55009-.472-.59684z" fill="#3f3d56"/><path d="m251.91 26.5104.471.5969-3.216 2.5501-.471-.5969z" fill="#3f3d56"/><path d="m227.679 12.3295h.759v4.1099h-.759z" fill="#e5e7eb"/><path d="m248.488 33.4876h.759v4.1099h-.759z" fill="#e5e7eb"/><path d="m212.946 6.3931h.76v4.1098h-.76z" fill="#e5e7eb"/><path d="m208.726 20.7859.679-.3414 1.839 3.6735-.679.3413z" fill="#e5e7eb"/><path d="m212.219 36.0075.678-.3413 1.839 3.6734-.678.3413z" fill="#e5e7eb"/><path d="m222.658 27.6537.504.5695-3.068 2.7264-.504-.5695z" fill="#e5e7eb"/><path d="m237.695 9.84439.504.56951-3.068 2.7264-.504-.5695z" fill="#e5e7eb"/><path d="m187.725 16.6941.504.5695-3.069 2.7265-.504-.5695z" fill="#e5e7eb"/><path d="m206.103 3.2991.504.56949-3.069 2.72644-.503-.56949z" fill="#e5e7eb"/><path d="m221.908 19.7881h.759v4.1099h-.759z" fill="#ff6584"/><path d="m179.064 22.3835.699-.2974 1.603 3.783-.699.2974z" fill="#ff6584"/><path d="m237.109 26.4185.658.3805-2.051 3.5592-.658-.3805z" fill="#ff6584"/><path d="m193.67 23.5264.658.3805-2.051 3.5592-.658-.3805z" fill="#ff6584"/><path d="m220.705 8.45723.657.38054-2.05 3.55923-.658-.3805z" fill="#ff6584"/><path d="m188.506 7.69585.658.38054-2.051 3.55921-.658-.3805z" fill="#ff6584"/><path d="m230.274 4.34709.658.38054-2.051 3.55923-.658-.38054z" fill="#ff6584"/><path d="m202.922 11.5685h.759v4.1098h-.759z" fill="#ff6584"/><path d="m246.665 18.4182h.759v4.1098h-.759z" fill="#ff6584"/><path d="m315.503 31.0519c-3.013 3.9403-6.219 8.2283-9.619 12.864-3.399 4.6357-6.258 9.3873-8.576 14.2548h18.195zm16.921-21.0924v48.2112h8.576v14.1388h-8.576v17.9633h-16.921v-17.9633h-34.651v-12.6322c1.699-3.3995 3.824-7.224 6.374-11.4734 2.549-4.3266 5.369-8.7305 8.46-13.2117 3.167-4.5584 6.49-9.0009 9.967-13.3276 3.476-4.3266 6.953-8.2283 10.43-11.7051z" fill="#0e0f2d"/><path d="m122.652 31.0519c-3.013 3.9403-6.22 8.2283-9.619 12.864-3.4 4.6357-6.258 9.3873-8.576 14.2548h18.195zm16.92-21.0924v48.2112h8.576v14.1388h-8.576v17.9633h-16.92v-17.9633h-34.652v-12.6322c1.6998-3.3995 3.8244-7.224 6.3741-11.4734 2.5496-4.3266 5.3696-8.7305 8.4599-13.2117 3.168-4.5584 6.49-9.0009 9.967-13.3276 3.477-4.3266 6.953-8.2283 10.43-11.7051z" fill="#0e0f2d"/><path d="m171.391 158.302c-.227-.227-.355-.536-.355-.858 0-.321.128-.63.355-.857.227-.228.534-.356.855-.356s.629.128.856.356l38.625 38.708c.227.227.354.536.354.858 0 .321-.127.63-.354.857-.227.228-.535.356-.856.356s-.629-.128-.856-.356l-38.376-38.459" fill="#0e0f2d"/><path d="m181.002 149.846.265.031-.167 1.43-.264-.03z" fill="#3f3d56"/><path d="m179.421 162.474.084-.254 1.367.454-.084.253z" fill="#fff"/><path d="m180.66 155.056.266.016-.086 1.438-.266-.016z" fill="#fff"/><path d="m181.904 147.171.266.016-.086 1.438-.266-.016z" fill="#fff"/><path d="m162.885 153.052.1-.247 1.335.54-.1.247z" fill="#ff6584"/><path d="m178.625 152.632.257-.069.373 1.391-.258.069z" fill="#ff6584"/><path d="m165.449 150.664.177-.177.957.957-.177.177z" fill="#fff"/><path d="m162.933 165.166.177-.178.957.958-.177.177z" fill="#fff"/><path d="m164.941 159.155.242-.065.35 1.308-.242.064z" fill="#ff6584"/><path d="m164.315 154.21.177-.178.957.958-.177.177z" fill="#ff6584"/><path d="m164.414 149.415c2.672-2.67 6.145-4.391 9.887-4.9 3.742-.508 7.547.223 10.834 2.084 3.287 1.86 5.875 4.746 7.367 8.217 1.492 3.47 1.807 7.335.896 11.001-.911 3.667-2.997 6.935-5.939 9.303s-6.579 3.707-10.354 3.811c-3.775.105-7.48-1.031-10.549-3.233-3.069-2.201-5.332-5.348-6.444-8.959-.925-3.006-1.013-6.208-.255-9.26.758-3.053 2.334-5.841 4.557-8.064zm14.15 18.814c1.19-.33 2.274-.963 3.146-1.837.177-.176.34-.362.497-.552 1.078-1.329 1.645-2.999 1.6-4.709-.045-1.711-.7-3.349-1.847-4.619-1.146-1.269-2.708-2.087-4.405-2.306-1.696-.218-3.414.178-4.845 1.116-1.43.938-2.478 2.357-2.954 4-.476 1.644-.35 3.403.357 4.962.706 1.558 1.947 2.812 3.496 3.536 1.55.723 3.308.868 4.955.409z" fill="#60a5fa"/><path d="m188.123 173.065c3.176-3.178 4.992-7.468 5.062-11.962.069-4.494-1.611-8.839-4.687-12.114.136.128.271.259.404.392 1.607 1.606 2.882 3.513 3.751 5.612.87 2.099 1.318 4.349 1.319 6.622 0 2.272-.447 4.522-1.316 6.622-.869 2.099-2.143 4.007-3.749 5.614-1.606 1.606-3.512 2.881-5.611 3.75-2.098.87-4.347 1.317-6.618 1.316-2.271 0-4.52-.448-6.618-1.319-2.098-.87-4.005-2.145-5.61-3.753-.133-.133-.264-.268-.392-.405 3.274 3.078 7.616 4.76 12.108 4.69s8.78-1.887 11.957-5.065z" fill="#0e0f2d" opacity=".2"/><path d="m169.841 154.844c1.345-1.347 3.059-2.264 4.925-2.636 1.867-.372 3.802-.182 5.56.547 1.758.728 3.261 1.962 4.318 3.545 1.058 1.583 1.622 3.444 1.622 5.348s-.564 3.765-1.622 5.348c-1.057 1.583-2.56 2.817-4.318 3.545s-3.693.919-5.56.547c-1.866-.372-3.58-1.29-4.925-2.636-1.8-1.807-2.811-4.253-2.811-6.804s1.011-4.998 2.811-6.804zm1.731 11.548c1.345 1.345 3.168 2.1 5.069 2.1s3.724-.755 5.069-2.1c.176-.176.34-.362.497-.552.873-1.077 1.415-2.384 1.561-3.762.146-1.379-.111-2.771-.739-4.006-.629-1.236-1.602-2.263-2.801-2.957-1.2-.694-2.575-1.025-3.959-.953s-2.717.543-3.839 1.358c-1.121.814-1.982 1.937-2.479 3.231s-.609 2.705-.321 4.061.963 2.6 1.942 3.58z" fill="#0e0f2d" opacity=".2"/><path d="m159.765 166.393 2.034 2.034c.149.149.338.25.544.29s.42.017.613-.065c.193-.083.357-.221.471-.398.114-.176.172-.383.168-.593l.232.232c.234.234.552.366.883.366s.649-.132.884-.366c.234-.234.366-.552.366-.884 0-.331-.132-.649-.366-.884l-.194-.193c.203-.011.399-.08.563-.2.165-.119.291-.284.364-.474.072-.19.088-.397.046-.596-.043-.199-.142-.381-.286-.525l-2.126-2.198-.499-.499c-.08-.08-.124-.188-.124-.301s.044-.222.124-.302.189-.125.302-.125.221.045.301.125l.498.499 1.843 1.773c.198.197.465.308.744.308s.547-.111.745-.308c.197-.197.308-.465.308-.745 0-.279-.111-.547-.308-.744l-1.717-1.9-.924-.924c-.13-.131-.202-.308-.202-.493s.074-.362.205-.493c.13-.13.307-.204.492-.204.184-.001.362.072.493.202l.924.925 1.863 1.752c.835-.495 1.728-.888 2.657-1.17.155-.154.257-.353.293-.568l.494.495c.235.234.553.366.884.366s.649-.132.883-.366c.235-.235.366-.553.366-.884 0-.332-.131-.65-.366-.884l-1.526-1.527c.17.17.394.277.633.303.24.025.48-.032.683-.163.202-.131.353-.327.428-.556s.069-.477-.016-.702l1.221 1.222c.234.234.552.366.883.366.332 0 .65-.132.884-.366.234-.235.366-.553.366-.884 0-.332-.132-.65-.366-.884l-2.909-2.91.005-.005 2.909 2.91c.234.234.552.366.883.366.332 0 .649-.132.884-.366.234-.234.366-.552.366-.884 0-.331-.132-.649-.366-.884l-1.211-1.211c.225.081.471.084.698.007.226-.078.42-.23.548-.432.129-.202.184-.442.158-.68s-.133-.46-.302-.629l-1.382-1.383.076-.076 2.483 2.485c.234.234.552.366.883.366.332 0 .65-.132.884-.366.234-.235.366-.553.366-.884 0-.332-.132-.65-.366-.884l-1.101-1.102c.197.198.465.309.744.309.279-.001.547-.111.744-.309.198-.197.308-.465.308-.744 0-.28-.11-.548-.308-.745l-1.638-1.639c-2.985-.803-6.13-.79-9.109.036s-5.681 2.436-7.827 4.661c-2.146 2.226-3.657 4.986-4.375 7.994-.719 3.007-.618 6.153.29 9.109z" fill="#fff"/><path d="m178.776 153.853c.116-.117.208-.254.271-.406s.095-.314.095-.478c0-.165-.032-.327-.095-.479-.063-.151-.155-.289-.271-.405l.461.461c.234.234.366.552.366.884 0 .331-.132.649-.366.883-.234.235-.552.367-.883.367-.332 0-.65-.132-.884-.367l-.461-.46c.116.116.254.208.406.271.151.062.314.095.478.095s.326-.033.478-.095c.152-.063.289-.155.405-.271z" fill="#000" opacity=".2"/><path d="m177.005 155.625c.116-.116.208-.254.271-.405.063-.152.095-.314.095-.479 0-.164-.032-.326-.095-.478s-.155-.289-.271-.406l.461.461c.116.116.208.254.27.406.063.152.096.314.096.478s-.033.327-.096.479c-.062.151-.154.289-.27.405s-.254.208-.406.271c-.151.063-.314.095-.478.095s-.326-.032-.478-.095-.289-.155-.405-.271l-.461-.461c.116.116.254.208.405.271.152.063.314.095.478.095.165 0 .327-.032.479-.095.151-.063.289-.155.405-.271z" fill="#000" opacity=".2"/><path d="m177.566 150.873c.225.082.471.084.697.007.227-.077.421-.229.549-.431s.184-.442.158-.68-.133-.46-.302-.63l.46.461c.17.17.276.392.303.63.026.238-.03.478-.158.68-.129.202-.322.354-.549.431-.226.077-.473.075-.698-.007z" fill="#000" opacity=".2"/><path d="m174.101 150.943.461.461-.005.005-.461-.461z" fill="#000" opacity=".2"/><path d="m180.511 147.296c.097.097.213.175.341.228s.265.08.403.08.275-.027.403-.08c.127-.053.243-.131.341-.228.098-.098.175-.214.228-.342s.08-.265.08-.403-.027-.275-.08-.403-.13-.244-.228-.341l.461.46c.197.198.308.466.308.745s-.111.547-.308.745c-.198.197-.465.308-.744.308-.28 0-.547-.111-.745-.308z" fill="#000" opacity=".2"/><path d="m177.362 147.681.461.461-.076.075-.461-.46z" fill="#000" opacity=".2"/><path d="m181.611 150.165c.116-.116.208-.254.271-.405.063-.152.095-.315.095-.479s-.032-.327-.095-.478c-.063-.152-.155-.29-.271-.406l.461.461c.116.116.208.254.271.406.063.151.095.314.095.478s-.032.327-.095.478c-.063.152-.155.29-.271.406s-.254.208-.405.271c-.152.063-.314.095-.478.095-.165 0-.327-.032-.479-.095-.151-.063-.289-.155-.405-.271l-.461-.461c.116.116.254.208.406.271.151.063.314.095.478.095s.326-.032.478-.095.289-.155.405-.271z" fill="#000" opacity=".2"/><path d="m173.815 158.816c.116-.116.209-.254.271-.405.063-.152.095-.314.095-.479 0-.164-.032-.326-.095-.478-.062-.152-.155-.289-.271-.405l.461.46c.116.117.208.254.271.406s.095.314.095.478c0 .165-.032.327-.095.479-.063.151-.155.289-.271.405s-.254.208-.405.271c-.152.063-.314.095-.478.095s-.327-.032-.478-.095c-.152-.063-.29-.155-.406-.271l-.46-.461c.116.116.253.209.405.271.151.063.314.096.478.096s.327-.033.478-.096c.152-.062.289-.155.405-.271z" fill="#000" opacity=".2"/><path d="m163.036 161.015c-.079-.08-.124-.189-.124-.302s.045-.221.124-.301c.08-.08.189-.125.302-.125s.221.045.301.125l.461.461c-.08-.08-.189-.125-.302-.125s-.221.045-.301.125-.125.188-.125.301.045.222.125.302z" fill="#000" opacity=".2"/><path d="m172.288 155.521c.171.171.394.278.634.303.239.026.48-.032.682-.163s.353-.327.428-.556.07-.476-.016-.702l.461.461c.085.226.091.473.016.702s-.226.425-.428.556-.443.188-.683.163c-.239-.025-.463-.132-.633-.303z" fill="#000" opacity=".2"/><path d="m167.469 162.684c.098-.098.176-.214.229-.342.052-.128.08-.265.08-.403s-.028-.275-.08-.403c-.053-.128-.131-.244-.229-.342l-1.716-1.899.461.461 1.716 1.899c.098.098.175.214.228.342s.08.265.08.403-.027.275-.08.403-.13.244-.228.341c-.098.098-.214.176-.341.229-.128.053-.265.08-.403.08s-.275-.027-.403-.08-.244-.131-.341-.229l-1.843-1.772-.461-.461 1.843 1.773c.098.097.214.175.341.228.128.053.265.08.403.08s.275-.027.403-.08.244-.131.341-.228z" fill="#000" opacity=".2"/><path d="m162.862 168.002c.1-.1.179-.22.232-.352.053-.131.079-.272.075-.414l.232.232c.116.116.254.208.405.271.152.062.314.095.479.095.164 0 .326-.033.478-.095.151-.063.289-.155.405-.271s.208-.254.271-.406.095-.314.095-.478-.032-.327-.095-.479c-.063-.151-.155-.289-.271-.405l-.193-.193c.203-.011.398-.081.563-.2.164-.12.29-.285.363-.475s.089-.397.046-.595c-.042-.199-.141-.382-.285-.525l-2.127-2.199.461.461 2.126 2.199c.144.143.243.326.286.525.042.198.026.405-.046.595-.073.19-.199.355-.364.475-.164.119-.359.189-.562.199l.193.194c.234.234.366.552.366.884 0 .331-.132.649-.366.884-.235.234-.552.366-.884.366-.331 0-.649-.132-.883-.366l-.232-.232c.005.21-.054.416-.168.593-.114.176-.278.315-.471.397-.193.083-.406.105-.613.065-.206-.04-.395-.14-.544-.289l-.46-.461c.097.098.213.175.341.228s.265.08.403.08.275-.027.403-.08c.127-.053.243-.13.341-.228z" fill="#000" opacity=".2"/><path d="m170.092 160.06c-.02-.158-.003-.319.049-.47s.138-.288.251-.4c.112-.113.249-.199.4-.251s.311-.069.469-.049c.154-.155.257-.353.293-.568l.461.461c-.39.109-.738.333-.999.643s-.422.692-.464 1.095c-.097.098-.213.175-.341.228s-.265.08-.403.08-.275-.027-.402-.08c-.128-.053-.244-.13-.342-.228l-1.863-1.753-.461-.461 1.863 1.753c.098.098.214.175.342.228s.264.08.403.08c.138 0 .275-.027.402-.08.128-.053.244-.13.342-.228z" fill="#000" opacity=".2"/><path d="m164.829 158.371c-.065-.065-.117-.142-.152-.227-.036-.085-.054-.176-.054-.268s.018-.183.053-.268.086-.162.151-.227.143-.117.227-.152c.085-.035.176-.053.268-.053s.183.019.268.054c.085.036.162.088.227.153l.46.461c-.064-.065-.141-.117-.226-.153-.085-.035-.176-.054-.268-.054s-.183.018-.268.053-.162.087-.227.152-.116.142-.152.227c-.035.085-.053.176-.052.268 0 .092.018.183.054.268.035.085.087.162.152.227z" fill="#000" opacity=".2"/><path d="m173.175 150.203.177-.177.957.957-.177.177z" fill="#3f3d56"/><path d="m169.313 153.039.177-.177.957.958-.177.177z" fill="#3f3d56"/><path d="m165.488 150.953.178-.178.956.958-.177.177z" fill="#3f3d56"/><path d="m177.321 152.543.177-.177.957.957-.177.177z" fill="#3f3d56"/><path d="m168.411 158.112.045-.247 1.331.243-.045.246z" fill="#3f3d56"/><path d="m162.849 155.677.045-.247 1.331.243-.045.247z" fill="#3f3d56"/><path d="m176.282 147.211.249.03-.156 1.344-.249-.029z" fill="#3f3d56"/><path d="m179.225 146.254.249.029-.157 1.345-.249-.029z" fill="#3f3d56"/><path d="m170.27 148.608.177-.178.957.958-.178.177z" fill="#e5e7eb"/><path d="m162.968 153.477.178-.177.956.957-.177.177z" fill="#e5e7eb"/><path d="m160.188 160.433.177-.177.957.957-.177.177z" fill="#e5e7eb"/><path d="m180.05 148.678.177-.177.957.957-.177.178z" fill="#e5e7eb"/><path d="m167.816 155.002.079-.238 1.284.426-.079.238z" fill="#e5e7eb"/><path d="m172.175 157.732.078-.238 1.285.426-.079.238z" fill="#e5e7eb"/><path d="m172.665 153.349.25.015-.081 1.351-.25-.015z" fill="#e5e7eb"/><path d="m172.027 145.691.25.015-.081 1.351-.25-.015z" fill="#e5e7eb"/><path d="m170.658 151.692.177-.177.957.957-.177.177z" fill="#ff6584"/><path d="m162.315 163.518.178-.177.957.957-.178.177z" fill="#ff6584"/><path d="m160.925 157.605.177-.177.957.957-.177.177z" fill="#ff6584"/><path d="m175.749 149.688.242-.065.35 1.308-.242.065z" fill="#ff6584"/><path d="m167.74 149.333.242-.064.35 1.307-.242.065z" fill="#ff6584"/><path d="m169.016 146.142.242-.064.35 1.307-.242.065z" fill="#ff6584"/><path d="m176.117 145.594.177-.178.957.958-.177.177z" fill="#ff6584"/><path d="m160.704 158.286.189-.189 1.018 1.019-.189.189z" fill="#3f3d56"/><path d="m56.9706 191.742c.0002-.204.0818-.401.2268-.546s.3415-.226.5463-.227c.2048 0 .4012.081.5458.226.1447.145.2259.341.2256.546l-.0378 34.849c-.0002.205-.0818.401-.2268.546s-.3415.227-.5463.227-.4012-.081-.5458-.225c-.1447-.145-.2259-.341-.2256-.546l.0376-34.625" fill="#0e0f2d"/><path d="m65.1133 192.695.1055.133-.72.57-.1054-.134z" fill="#3f3d56"/><path d="m58.7099 197.673.1519-.076.4114.82-.1519.076z" fill="#fff"/><path d="m62.6114 194.889.1127.127-.6869.609-.1128-.127z" fill="#fff"/><path d="m66.7252 191.896.1127.127-.687.609-.1127-.127z" fill="#fff"/><path d="m55.5032 185.975.1565-.066.3584.845-.1564.066z" fill="#ff6584"/><path d="m62.7864 192.879.1472.085-.4591.795-.1472-.085z" fill="#ff6584"/><path d="m57.7363 186.055h.1597l-.0002.862h-.1598z" fill="#fff"/><path d="m50.0663 191.456h.1598l-.0002.862h-.1598z" fill="#fff"/><path d="m53.6805 189.652.1383.08-.4314.747-.1384-.08z" fill="#ff6584"/><path d="m55.6269 187.142.1597-.001-.0002.863h-.1597z" fill="#ff6584"/><path d="m57.8323 185.026c2.4073 0 4.7477.79 6.6632 2.247 1.9154 1.457 3.3006 3.502 3.9436 5.821.6429 2.32.5083 4.786-.3833 7.023-.8916 2.236-2.4912 4.12-4.5539 5.362-2.0628 1.242-4.4753 1.774-6.8685 1.515-2.3933-.258-4.6354-1.294-6.3837-2.948-1.7482-1.654-2.9062-3.836-3.2969-6.211s.0075-4.813 1.1335-6.941c.938-1.772 2.341-3.254 4.0583-4.288 1.7172-1.034 3.6837-1.581 5.6877-1.58zm-2.1023 14.855c.685.387 1.4587.59 2.2457.59.159 0 .3166-.011.4727-.025 1.0844-.113 2.0929-.61 2.8433-1.402.7505-.791 1.1935-1.824 1.2491-2.913s-.28-2.161-.946-3.024c-.6661-.863-1.6187-1.459-2.686-1.681-1.0674-.222-2.179-.054-3.1342.472-.9553.525-1.6912 1.375-2.075 2.396-.3837 1.021-.39 2.145-.0176 3.169.3723 1.025 1.0987 1.882 2.048 2.418z" fill="#60a5fa"/><path d="m57.8575 206.367c2.8637 0 5.6151-1.116 7.6718-3.109 2.0567-1.994 3.2571-4.709 3.3471-7.572.0038.12.0057.239.0058.359.0002 1.448-.2848 2.882-.8388 4.22s-1.3661 2.554-2.3899 3.578-2.2392 1.837-3.5769 2.391c-1.3377.555-2.7714.84-4.2192.841-1.4479 0-2.8814-.285-4.2188-.839-1.3375-.553-2.5525-1.365-3.5758-2.389s-1.8348-2.239-2.3881-3.577c-.5533-1.337-.8375-2.771-.8366-4.219.0001-.12.002-.24.006-.359.0884 2.862 1.2874 5.577 3.3431 7.569 2.0557 1.993 4.8066 3.107 7.6703 3.106z" fill="#0e0f2d" opacity=".2"/><path d="m57.8314 189.918c1.2131-.001 2.399.358 3.4077 1.031 1.0087.674 1.7948 1.631 2.2589 2.752.4642 1.121.5855 2.354.3486 3.544s-.8213 2.283-1.6793 3.141-1.9511 1.442-3.141 1.679c-1.1898.237-2.4231.116-3.5436-.349-1.1206-.464-2.0782-1.25-2.7516-2.259-.6735-1.008-1.0326-2.194-1.0319-3.407.003-1.625.6502-3.183 1.7996-4.333 1.1495-1.149 2.7075-1.796 4.3326-1.799zm-4.4238 5.984c0 1.212.4813 2.374 1.338 3.231.8566.856 2.0186 1.338 3.2304 1.338.1591 0 .3167-.011.4728-.026.8786-.091 1.7119-.436 2.399-.992.6871-.555 1.1985-1.298 1.4722-2.138.2738-.84.2982-1.741.0702-2.595-.2279-.853-.6983-1.622-1.3544-2.213-.656-.591-1.4695-.98-2.3419-1.118s-1.7664-.021-2.5736.339c-.8072.359-1.4931.944-1.9745 1.685-.4815.741-.7379 1.606-.7382 2.489z" fill="#0e0f2d" opacity=".2"/><path d="m48.0864 190.581-.0005 1.834c-.0001.134.0398.265.1147.376.0749.11.1813.196.3055.246s.2605.062.3914.034c.1308-.029.2503-.095.3429-.192l-.0001.209c0 .211.0838.414.2332.563.1493.149.3519.233.5631.233s.4138-.084.5632-.233c.1494-.15.2334-.352.2335-.564v-.174c.0963.087.2157.144.3437.164s.2591.003.3775-.05c.1183-.053.2188-.139.2893-.248s.1079-.235.1078-.365l.0324-1.949.0002-.449c0-.072.0286-.142.0795-.192.051-.051.1201-.08.1921-.08s.1411.029.192.079c.0509.051.0795.12.0795.192l-.0001.45.0315 1.629c0 .178.0706.349.1964.475.1258.125.2964.196.4743.196.178 0 .3486-.071.4745-.197.1258-.125.1966-.296.1966-.474l.0825-1.629.0002-.833c.0006-.118.0477-.231.1311-.314.0835-.083.1964-.129.3141-.129.1177-.001.2306.046.3139.129.0834.083.1305.196.131.313l-.0002.833.0497 1.63c.6.153 1.1792.378 1.725.67.1391 0 .2746-.043.3879-.124l-.0001.446c-.0001.211.0838.414.2331.563.1494.149.3519.233.5632.233.2112 0 .4138-.084.5632-.233.1494-.15.2334-.352.2334-.564l.0004-1.376c-.0001.154.0524.303.1489.422.0964.119.2308.202.3809.234s.3066.012.4436-.057c.1369-.07.246-.184.3089-.324l-.0003 1.101c0 .211.0838.414.2332.563.1493.15.3519.233.5631.233s.4138-.084.5632-.233.2334-.352.2335-.563l.0006-2.622h.0045l-.0007 2.622c0 .211.0838.413.2332.563.1493.149.3519.233.5631.233s.4138-.084.5632-.233c.1494-.15.2334-.353.2335-.564l.0002-1.091c.0646.138.1744.25.3113.317.1369.068.2927.086.4417.053.1489-.033.2821-.116.3776-.235s.1475-.267.1474-.42l.0003-1.246h.0684l-.0006 2.239c0 .211.0839.413.2332.563.1493.149.3519.233.5631.233s.4138-.084.5632-.234c.1494-.149.2334-.352.2335-.563l.0002-.992c0 .177.0706.348.1964.474s.2964.196.4743.196c.178 0 .3486-.071.4745-.196.1258-.126.1966-.297.1966-.475l.0004-1.477c-.9835-1.707-2.4066-3.118-4.1211-4.088s-3.6579-1.463-5.6279-1.427-3.8947.599-5.5738 1.631c-1.6791 1.031-3.0513 2.494-3.9738 4.235z" fill="#fff"/><path d="m62.3049 193.498c.1046 0 .2082-.021.3049-.061.0966-.04.1844-.099.2584-.173s.1327-.162.1727-.258c.0401-.097.0607-.2.0607-.305l-.0001.415c-.0001.211-.084.414-.2334.563-.1494.15-.352.234-.5633.234-.2112 0-.4138-.084-.5631-.233-.1493-.15-.2332-.352-.2331-.563l.0001-.416c0 .105.0205.208.0605.305s.0987.185.1726.258c.0739.074.1617.133.2584.173.0966.04.2002.061.3047.061z" fill="#000" opacity=".2"/><path d="m60.7073 193.498c.1046 0 .2082-.021.3048-.061s.1845-.098.2584-.172c.074-.074.1327-.162.1727-.259.0401-.097.0607-.2.0607-.305l-.0001.416c0 .104-.0206.208-.0607.304-.04.097-.0987.185-.1727.259s-.1618.133-.2584.173c-.0967.04-.2002.06-.3048.06s-.2082-.02-.3048-.06-.1844-.099-.2583-.173c-.074-.074-.1326-.162-.1726-.258-.04-.097-.0606-.2-.0606-.305l.0001-.415c0 .104.0206.208.0606.305.0399.096.0986.184.1725.258.074.074.1618.132.2584.172s.2002.061.3048.061z" fill="#000" opacity=".2"/><path d="m63.1014 191.609c.0646.138.1744.25.3113.318.1369.067.2927.086.4417.053.149-.034.2822-.117.3776-.236.0955-.119.1475-.267.1474-.419l-.0001.415c.0001.152-.0519.301-.1474.42-.0954.119-.2287.202-.3776.235-.149.033-.3048.014-.4417-.053s-.2467-.179-.3113-.317z" fill="#000" opacity=".2"/><path d="m61.5084 190.079-.0001.415h-.0045l.0001-.415z" fill="#000" opacity=".2"/><path d="m66.0407 191.324c0 .088.0173.176.051.257s.0831.155.1454.218c.0622.062.1362.111.2176.145s.1686.051.2567.051.1754-.017.2568-.051.1553-.083.2177-.146c.0623-.062.1117-.136.1454-.217.0338-.082.0512-.169.0512-.257l-.0001.415c-.0001.178-.0708.349-.1966.475-.1259.126-.2966.196-.4745.196s-.3486-.07-.4744-.196c-.1257-.126-.1964-.296-.1963-.474z" fill="#000" opacity=".2"/><path d="m64.4488 190.079-.0001.415h-.0683l.0001-.415z" fill="#000" opacity=".2"/><path d="m65.2439 193.113c.1046 0 .2082-.02.3048-.06.0967-.04.1845-.099.2585-.173.0739-.074.1326-.162.1727-.258.04-.097.0607-.201.0607-.305l-.0001.415c-.0001.105-.0207.208-.0607.305-.0401.097-.0988.184-.1728.258-.0739.074-.1617.133-.2584.173-.0966.04-.2002.061-.3048.061s-.2082-.021-.3048-.061-.1844-.098-.2583-.172c-.074-.074-.1326-.162-.1726-.259-.04-.096-.0606-.2-.0606-.305l.0001-.415c0 .105.0206.208.0606.305s.0986.184.1726.258c.0739.074.1617.133.2583.173s.2002.06.3048.06z" fill="#000" opacity=".2"/><path d="m57.8318 193.499c.1046 0 .2082-.021.3048-.061.0967-.04.1845-.099.2585-.173.0739-.074.1326-.161.1727-.258.04-.097.0606-.2.0607-.305l-.0001.415c-.0001.105-.0207.209-.0608.305-.04.097-.0987.185-.1727.259-.0739.074-.1618.132-.2584.172s-.2002.061-.3048.061-.2082-.021-.3048-.061-.1844-.098-.2583-.172c-.074-.074-.1326-.162-.1726-.258-.04-.097-.0606-.201-.0606-.305l.0001-.416c0 .105.0206.209.0606.305.04.097.0986.185.1726.259.0739.074.1617.132.2583.172s.2002.061.3048.061z" fill="#000" opacity=".2"/><path d="m51.984 189.632c0-.072.0287-.141.0796-.192.051-.051.12-.079.1921-.079.072 0 .141.028.192.079.0509.051.0795.12.0795.192l-.0002.415c.0001-.072-.0285-.141-.0794-.192-.051-.051-.12-.079-.192-.079-.0721 0-.1411.028-.1921.079-.0509.051-.0796.12-.0796.192z" fill="#000" opacity=".2"/><path d="m58.629 191.326c-.0001.153.0525.302.1489.421.0964.12.2309.202.381.235.15.032.3066.011.4435-.058.137-.069.246-.184.309-.324l-.0001.416c-.063.14-.172.254-.309.323-.1369.07-.2935.09-.4435.058-.1501-.032-.2846-.115-.381-.234-.0964-.12-.149-.268-.1489-.422z" fill="#000" opacity=".2"/><path d="m53.229 192.382c.0881-.001.1754-.018.2568-.052.0814-.033.1554-.083.2177-.145s.1117-.136.1455-.218c.0337-.081.0511-.168.0511-.257l.0825-1.629-.0001.415-.0825 1.63c-.0001.088-.0174.175-.0512.257-.0337.081-.0831.155-.1455.217-.0623.063-.1362.112-.2176.146-.0815.033-.1687.051-.2568.051s-.1753-.017-.2567-.051-.1554-.083-.2177-.146c-.0622-.062-.1116-.136-.1453-.217-.0337-.082-.0511-.169-.051-.257l-.0316-1.629.0001-.416.0316 1.63c-.0001.088.0173.175.051.257.0336.081.083.155.1453.217s.1363.112.2177.146c.0814.033.1686.051.2567.051z" fill="#000" opacity=".2"/><path d="m48.7567 192.702c.0904 0 .1799-.018.263-.054.0832-.035.1583-.087.2207-.153v.209c0 .105.0205.209.0605.305.04.097.0987.185.1726.258.074.074.1617.133.2584.173.0966.04.2002.061.3048.061.1045 0 .2081-.021.3048-.061.0966-.04.1844-.099.2584-.173s.1327-.162.1727-.258c.0401-.097.0607-.2.0607-.305l.0001-.174c.0963.086.2157.143.3437.163.128.021.2591.003.3774-.05.1184-.052.2189-.138.2894-.247.0704-.109.1079-.236.1078-.365l.0324-1.949-.0001.415-.0324 1.949c.0001.129-.0374.256-.1079.365-.0704.109-.1709.195-.2893.248-.1183.053-.2494.07-.3774.05s-.2474-.077-.3438-.164v.174c0 .212-.084.414-.2334.564-.1494.149-.352.233-.5633.233-.2112 0-.4137-.084-.5631-.233-.1493-.15-.2332-.352-.2331-.563v-.209c-.0926.096-.212.163-.3429.191-.1309.029-.2672.017-.3914-.033s-.2305-.136-.3054-.247c-.0749-.11-.1149-.241-.1147-.375l.0001-.415c-.0001.088.0173.175.0509.256.0337.082.0831.156.1454.218s.1363.112.2177.145c.0813.034.1686.051.2567.051z" fill="#000" opacity=".2"/><path d="m55.5932 192.381c.0626-.08.1427-.145.234-.189.0913-.045.1916-.068.2932-.068s.2019.023.2932.068c.0913.044.1713.109.2339.189.139 0 .2746-.044.3878-.124l-.0001.415c-.225-.126-.4829-.182-.7401-.16s-.5018.121-.702.284c-.0881 0-.1754-.017-.2568-.051-.0814-.033-.1553-.083-.2176-.145s-.1117-.136-.1454-.218c-.0337-.081-.051-.168-.0509-.256l-.0498-1.63.0001-.415.0498 1.629c-.0001.088.0172.176.0509.257s.0831.155.1454.218c.0623.062.1363.111.2177.145.0813.034.1686.051.2567.051z" fill="#000" opacity=".2"/><path d="m53.9835 189.248c-.0002-.058.0112-.116.0334-.17.0223-.055.0551-.104.0964-.145.0414-.042.0905-.075.1447-.097.0541-.023.1121-.035.1707-.035s.1166.012.1707.034c.0541.023.1032.056.1446.097.0413.042.074.091.0963.145.0222.055.0336.113.0333.171l-.0001.415c.0002-.058-.0111-.116-.0333-.17-.0223-.055-.055-.104-.0963-.145-.0414-.042-.0905-.075-.1446-.097-.0541-.023-.1121-.034-.1707-.034s-.1166.011-.1708.034c-.0541.022-.1032.055-.1446.097-.0413.041-.0741.091-.0964.145-.0222.054-.0336.112-.0334.171z" fill="#000" opacity=".2"/><path d="m61.4252 189.329h.1598l-.0003.862h-.1597z" fill="#3f3d56"/><path d="m58.4067 188.866h.1597l-.0002.863h-.1598z" fill="#3f3d56"/><path d="m57.6235 186.203h.1597l-.0002.862h-.1598z" fill="#3f3d56"/><path d="m62.2387 192.252h.1597l-.0002.862h-.1597z" fill="#3f3d56"/><path d="m55.7143 190.746.1314-.091.4906.709-.1314.091z" fill="#3f3d56"/><path d="m54.3046 187.142.1314-.091.4907.709-.1314.091z" fill="#3f3d56"/><path d="m64.1729 189.381.0991.125-.6766.535-.0991-.125z" fill="#3f3d56"/><path d="m65.9307 190.275.0991.126-.6766.535-.0991-.125z" fill="#3f3d56"/><path d="m60.8349 187.3h.1597l-.0002.863h-.1597z" fill="#e5e7eb"/><path d="m55.35 186.204h.1598l-.0003.863h-.1597z" fill="#e5e7eb"/><path d="m50.9623 188.086h.1598l-.0002.863h-.1598z" fill="#e5e7eb"/><path d="m65.2099 191.74h.1597l-.0002.862h-.1597z" fill="#e5e7eb"/><path d="m56.8474 189.076.1428-.071.3867.77-.1428.072z" fill="#e5e7eb"/><path d="m57.5813 192.271.1428-.072.3867.771-.1428.072z" fill="#e5e7eb"/><path d="m59.7769 190.516.1059.12-.6456.572-.1059-.119z" fill="#e5e7eb"/><path d="m62.9409 186.778.106.119-.6456.573-.106-.12z" fill="#e5e7eb"/><path d="m59.6196 188.866h.1597l-.0002.862h-.1598z" fill="#ff6584"/><path d="m50.5307 190.435h.1597l-.0002.863h-.1597z" fill="#ff6584"/><path d="m52.5693 187.144h.1597l-.0002.863h-.1597z" fill="#ff6584"/><path d="m62.8168 190.256.1383.08-.4315.747-.1383-.079z" fill="#ff6584"/><path d="m59.3675 186.487.1384.08-.4315.747-.1383-.08z" fill="#ff6584"/><path d="m61.3802 185.624.1384.08-.4315.747-.1383-.079z" fill="#ff6584"/><path d="m64.8276 188.577h.1597l-.0002.863h-.1598z" fill="#ff6584"/><path d="m52.1625 187.351h.17l-.0002.918h-.17z" fill="#3f3d56"/><path d="m283.18 126.172c.275 1.024.358 2.02.252 2.987-.102.959-.377 1.84-.824 2.643-.448.803-1.058 1.502-1.83 2.095-.775.587-1.693 1.023-2.756 1.308-1.056.283-2.066.364-3.03.243-.966-.128-1.847-.427-2.642-.897-.789-.472-1.471-1.097-2.045-1.875-.576-.784-1.001-1.688-1.276-2.712-.274-1.024-.357-2.016-.249-2.977.107-.967.384-1.852.831-2.656.454-.804 1.068-1.5 1.843-2.088.772-.593 1.687-1.031 2.743-1.314.708-.19 1.397-.285 2.067-.285.667-.006 1.303.072 1.905.235.601.156 1.166.395 1.693.716.533.313 1.015.694 1.446 1.145.431.45.804.965 1.118 1.543.32.577.571 1.207.754 1.889zm-2.656.712c-.205-.766-.492-1.424-.86-1.975-.37-.556-.802-.996-1.296-1.319s-1.045-.524-1.653-.603c-.601-.08-1.243-.029-1.925.154-.683.183-1.268.46-1.755.832-.48.37-.857.82-1.129 1.348-.266.527-.42 1.124-.463 1.791-.043.661.037 1.374.243 2.14.205.767.493 1.428.863 1.985.368.55.799.986 1.293 1.309.498.316 1.048.513 1.649.594.608.078 1.253.026 1.936-.157.683-.182 1.264-.459 1.745-.829.487-.372.864-.819 1.132-1.339.266-.527.421-1.121.465-1.781.042-.667-.04-1.384-.245-2.15z" fill="#000"/><path d="m288.532 121.436c.734-.197 1.432-.256 2.095-.179.669.077 1.275.277 1.817.601.549.322 1.024.767 1.425 1.336s.706 1.243.914 2.023c.211.785.285 1.525.222 2.218s-.25 1.32-.563 1.88c-.306.558-.729 1.037-1.271 1.437-.535.399-1.169.697-1.903.894-.741.198-1.446.259-2.115.183s-1.279-.278-1.83-.607c-.544-.33-1.019-.779-1.427-1.347-.401-.568-.706-1.246-.917-2.031-.209-.78-.282-1.516-.219-2.209.069-.695.258-1.318.565-1.87.315-.553.742-1.03 1.284-1.431.541-.4 1.182-.7 1.923-.898zm2.244 8.374c.824-.22 1.358-.66 1.603-1.319.251-.661.233-1.526-.054-2.595-.286-1.069-.704-1.83-1.253-2.283-.543-.455-1.227-.572-2.051-.352-.837.225-1.383.675-1.637 1.35-.249.667-.231 1.532.054 2.595.285 1.062.702 1.82 1.251 2.273.554.445 1.25.556 2.087.331z" fill="#000"/><path d="m299.634 126.495c.358.256.713.409 1.065.46.358.049.724.023 1.098-.077.36-.097.667-.251.921-.464.253-.213.443-.485.568-.815.132-.332.197-.722.194-1.17-.004-.454-.083-.968-.237-1.541-.155-.58-.334-1.056-.538-1.43-.199-.381-.419-.674-.66-.879-.241-.204-.503-.331-.785-.38-.276-.05-.572-.033-.887.052-.496.133-.889.352-1.18.658-.293.299-.542.68-.75 1.143zm-1.73-5.955c.283-.566.644-1.06 1.083-1.481.439-.422 1.007-.725 1.702-.912.541-.145 1.064-.164 1.569-.058.511.105.985.33 1.423.675.442.337.835.798 1.178 1.382.347.576.63 1.27.847 2.082.199.74.283 1.453.252 2.137-.03.685-.17 1.309-.419 1.873-.243.562-.593 1.046-1.051 1.451-.452.397-1.004.683-1.654.857-.554.149-1.05.192-1.487.13-.44-.069-.855-.213-1.245-.433l1.087 4.057-2.386.639-3.522-13.146 1.459-.391c.309-.083.55.008.725.272z" fill="#000"/><path d="m312.825 117.163c-.037.12-.084.212-.143.276-.061.058-.146.101-.255.131-.116.031-.25.032-.403.004-.146-.03-.316-.06-.511-.091-.196-.037-.415-.058-.658-.062-.236-.005-.506.032-.808.113-.47.126-.814.325-1.031.597-.21.271-.273.567-.186.889.057.212.173.375.348.487.179.103.396.18.651.229.261.047.549.077.863.09.312.006.63.02.954.044.33.022.658.062.984.119.324.052.627.15.907.296.286.137.534.329.745.577.218.245.38.567.487.966.128.477.159.941.094 1.394-.061.444-.219.859-.474 1.245-.257.379-.611.719-1.062 1.019-.447.293-.992.525-1.636.697-.341.092-.684.149-1.03.173-.338.028-.672.028-1.004 0-.326-.03-.637-.085-.935-.164-.29-.081-.556-.182-.796-.304l.308-1.056c.041-.128.103-.234.184-.318s.195-.146.343-.185c.148-.04.298-.035.449.014.158.047.337.096.536.146.2.05.427.086.681.107.261.02.572-.018.932-.115.284-.076.517-.172.699-.29.187-.126.33-.261.43-.405.106-.146.169-.298.189-.455.024-.165.016-.325-.025-.48-.063-.231-.184-.402-.366-.513-.175-.111-.393-.191-.654-.238-.254-.05-.541-.076-.86-.081-.314-.012-.639-.028-.976-.049-.33-.022-.661-.06-.994-.116-.328-.064-.636-.172-.925-.322-.282-.152-.535-.364-.76-.635-.218-.273-.386-.628-.503-1.066-.109-.406-.132-.814-.069-1.224s.212-.792.449-1.145c.241-.361.572-.685.993-.97.425-.293.943-.522 1.555-.686.683-.183 1.334-.237 1.955-.161.621.075 1.167.246 1.639.513z" fill="#000"/><path d="m316.329 109.805 1.481 5.525c.157.586.282 1.17.376 1.752.092.576.178 1.192.257 1.847l-1.623.435c-.259-.607-.493-1.183-.701-1.728-.21-.551-.393-1.119-.55-1.705l-1.481-5.526zm.773 13.355c-.053-.2-.069-.399-.046-.598.029-.201.09-.384.185-.547.1-.165.23-.31.39-.436.16-.125.343-.216.549-.271.199-.053.4-.066.601-.037s.383.091.546.185c.17.093.317.219.443.378.126.16.215.34.269.539.055.206.068.41.039.611-.031.194-.096.374-.197.539-.094.163-.222.305-.384.424-.159.125-.339.215-.538.268-.206.056-.41.069-.611.04-.199-.023-.384-.08-.554-.173-.163-.094-.306-.218-.43-.371-.119-.161-.207-.345-.262-.551z" fill="#000"/></svg>