<svg fill="none" height="269" viewBox="0 0 429 269" width="429" xmlns="http://www.w3.org/2000/svg"><path d="m112.119 163.407c45.075 0 81.615-36.58 81.615-81.7037 0-45.1235-36.54-81.7033-81.615-81.7033-45.0748 0-81.6151 36.5798-81.6151 81.7033 0 45.1237 36.5403 81.7037 81.6151 81.7037z" fill="#fff"/><path d="m0 19.6174c0 29.7269 18.629 53.7816 41.6508 53.7816z" fill="#2f2e41"/><path d="m41.6509 73.3989c0-30.0609 20.7888-54.3858 46.4799-54.3858z" fill="#60a5fa"/><path d="m15.0908 22.3122c0 28.2374 11.8794 51.0868 26.5599 51.0868z" fill="#60a5fa"/><path d="m41.6509 73.399c0-38.4112 24.0287-69.49309 53.7235-69.49309z" fill="#2f2e41"/><path d="m32.8887 73.7781s5.9067-.1821 7.6869-1.4511c1.7801-1.269 9.0861-2.7842 9.5277-.749.4416 2.0351 8.8768 10.122 2.2081 10.1759-6.6687.0538-15.4952-1.0399-17.2719-2.1233-1.7767-1.0835-2.1508-5.8525-2.1508-5.8525z" fill="#a8a8a8"/><path d="m52.4304 81.0454c-6.6687.0539-15.4951-1.0398-17.2719-2.1233-1.353-.8251-1.8922-3.7857-2.0726-5.1517-.125.0054-.1972.0077-.1972.0077s.3741 4.769 2.1508 5.8524c1.7768 1.0835 10.6032 2.1772 17.2719 2.1234 1.925-.0156 2.5899-.7012 2.5534-1.7167-.2675.6136-1.0016.9967-2.4344 1.0082z" fill="#000" opacity=".2"/><path d="m76.1009 172.59c39.5731 0 71.6531-4.369 71.6531-9.759 0-5.389-32.08-9.758-71.6531-9.758-39.5727 0-71.65266 4.369-71.65266 9.758 0 5.39 32.07996 9.759 71.65266 9.759z" fill="#3f3d56"/><path d="m76.101 171.024c33.224 0 60.158-3.668 60.158-8.193s-26.934-8.193-60.158-8.193c-33.2242 0-60.1576 3.668-60.1576 8.193s26.9334 8.193 60.1576 8.193z" fill="#000" opacity=".1"/><path d="m320.563 268.125c59.888 0 108.437-6.612 108.437-14.768s-48.549-14.768-108.437-14.768-108.437 6.612-108.437 14.768 48.549 14.768 108.437 14.768z" fill="#3f3d56"/><path d="m119.016 256.474c35.975 0 65.139-3.971 65.139-8.871 0-4.899-29.164-8.871-65.139-8.871-35.9754 0-65.139 3.972-65.139 8.871 0 4.9 29.1636 8.871 65.139 8.871z" fill="#3f3d56"/><path d="m177.258 240.123c34.485 8.823 100.773-11.507 108.054-34.522" stroke="#2f2e41" stroke-miterlimit="10" stroke-width="2"/><path d="m118.633 99.3482s49.812-13.8091 52.877 30.6868c3.066 44.496-40.999 57.154-6.514 65.976" stroke="#2f2e41" stroke-miterlimit="10" stroke-width="2"/><path d="m70.5078 206.093s14.9713-4.15 15.8926 9.223c.9214 13.374-12.3225 17.178-1.9578 19.83" stroke="#2f2e41" stroke-miterlimit="10" stroke-width="2"/><path d="m298.376 216.05-3.019 19.292s-14.86 7.903-4.411 8.135c10.448.233 59.672 0 59.672 0s9.52 0-5.572-8.367l-3.019-20.223z" fill="#2f2e41"/><path d="m288.844 243.268c2.373-2.114 6.513-4.316 6.513-4.316l3.019-19.292 43.651.041 3.018 19.019c3.52 1.951 5.7 3.447 6.975 4.594 1.939-.443 4.057-2.088-6.975-8.204l-3.018-20.223-43.651 1.163-3.019 19.292s-12.487 6.642-6.513 7.926z" fill="#000" opacity=".1"/><path d="m411.386 81.5839h-182.834c-3.819 0-6.914 3.0991-6.914 6.922v123.2951c0 3.823 3.095 6.922 6.914 6.922h182.834c3.819 0 6.915-3.099 6.915-6.922v-123.2951c0-3.8229-3.096-6.922-6.915-6.922z" fill="#2f2e41"/><path d="m411.428 89h-183.428v102.738h183.428z" fill="#3f3d56"/><path d="m319.97 86.8137c.641 0 1.16-.5203 1.16-1.1622 0-.6418-.519-1.1622-1.16-1.1622-.642 0-1.161.5204-1.161 1.1622 0 .6419.519 1.1622 1.161 1.1622z" fill="#f2f2f2"/><path d="m418.301 199.779v12.022c0 .909-.179 1.809-.527 2.649-.347.84-.856 1.603-1.498 2.246-.642.642-1.405 1.152-2.244 1.5s-1.738.527-2.646.527h-182.834c-.908 0-1.807-.179-2.646-.527s-1.601-.858-2.243-1.5c-.642-.643-1.152-1.406-1.499-2.246-.348-.84-.526-1.74-.526-2.649v-12.022z" fill="#2f2e41"/><path d="m371.283 256.029v2.325h-124.917v-1.86l.172-.465 3.079-8.368h119.112z" fill="#2f2e41"/><path d="m419.355 253.754c-.228.973-1.087 2.001-3.028 2.972-6.966 3.487-21.129-.929-21.129-.929s-10.913-1.86-10.913-6.741c.307-.21.626-.4.957-.57 2.928-1.551 12.638-5.378 29.855.163 1.269.398 2.402 1.141 3.273 2.147.698.817 1.245 1.854.985 2.958z" fill="#2f2e41"/><path d="m419.355 253.753c-8.526 3.271-16.126 3.515-23.925-1.908-3.933-2.733-7.507-3.41-10.188-3.359 2.928-1.551 12.638-5.378 29.855.162 1.269.399 2.402 1.142 3.273 2.147.698.818 1.245 1.855.985 2.958z" fill="#000" opacity=".1"/><path d="m408.665 251.845c1.667 0 3.018-.416 3.018-.93 0-.513-1.351-.929-3.018-.929s-3.019.416-3.019.929c0 .514 1.352.93 3.019.93z" fill="#f2f2f2"/><path d="m319.969 213.725c2.437 0 4.412-1.977 4.412-4.416s-1.975-4.416-4.412-4.416c-2.436 0-4.411 1.977-4.411 4.416s1.975 4.416 4.411 4.416z" fill="#f2f2f2"/><path d="m371.283 256.029v2.325h-124.917v-1.86l.172-.465z" fill="#000" opacity=".1"/><path d="m121.315 60.9898h-79.6993v92.8272h79.6993z" fill="#2f2e41"/><path d="m129.362 51.7838h-95.7927v32.9882h95.7927z" fill="#3f3d56"/><path d="m129.362 90.9093h-95.7927v32.9887h95.7927z" fill="#3f3d56"/><path d="m129.362 130.035h-95.7927v32.988h95.7927z" fill="#3f3d56"/><g fill="#60a5fa"><path d="m110.203 57.5376h-6.131v6.1373h6.131z" opacity=".4"/><path d="m119.016 57.5376h-6.131v6.1373h6.131z" opacity=".8"/><path d="m127.829 57.5376h-6.131v6.1373h6.131z"/><path d="m110.203 96.2795h-6.131v6.1375h6.131z" opacity=".4"/><path d="m119.016 96.2795h-6.131v6.1375h6.131z" opacity=".8"/><path d="m127.829 96.2795h-6.131v6.1375h6.131z"/><path d="m110.203 135.021h-6.131v6.138h6.131z" opacity=".4"/><path d="m119.016 135.021h-6.131v6.138h6.131z" opacity=".8"/><path d="m127.829 135.021h-6.131v6.138h6.131z"/></g><path d="m121.315 236.671c16.718 0 30.27-13.567 30.27-30.303s-13.552-30.303-30.27-30.303-30.2706 13.567-30.2706 30.303 13.5526 30.303 30.2706 30.303z" fill="#2f2e41"/><path d="m116.717 230.15h-9.196v16.494h9.196z" fill="#2f2e41"/><path d="m135.109 230.15h-9.196v16.494h9.196z" fill="#2f2e41"/><path d="m115.184 249.713c4.233 0 7.664-1.288 7.664-2.877s-3.431-2.877-7.664-2.877c-4.232 0-7.663 1.288-7.663 2.877s3.431 2.877 7.663 2.877z" fill="#2f2e41"/><path d="m133.576 249.329c4.233 0 7.664-1.288 7.664-2.876 0-1.589-3.431-2.877-7.664-2.877-4.232 0-7.663 1.288-7.663 2.877 0 1.588 3.431 2.876 7.663 2.876z" fill="#2f2e41"/><path d="m122.081 209.053c5.714 0 10.346-4.637 10.346-10.357s-4.632-10.356-10.346-10.356c-5.713 0-10.345 4.636-10.345 10.356s4.632 10.357 10.345 10.357z" fill="#fff"/><path d="m122.081 202.149c1.905 0 3.449-1.546 3.449-3.453 0-1.906-1.544-3.452-3.449-3.452-1.904 0-3.448 1.546-3.448 3.452 0 1.907 1.544 3.453 3.448 3.453z" fill="#3f3d56"/><path d="m91.9514 178.187c-2.4442-10.958 5.3689-22.031 17.4506-24.731 12.083-2.701 23.859 3.993 26.303 14.951s-5.563 14.999-17.645 17.7c-12.083 2.701-23.6644 3.038-26.1086-7.92z" fill="#e5e7eb"/><path d="m149.706 200.324c7.684-3.292 13.077-7.919 12.044-10.335-1.032-2.415-8.099-1.703-15.783 1.589-7.685 3.293-13.078 7.92-12.045 10.335 1.032 2.415 8.099 1.704 15.784-1.589z" fill="#2f2e41"/><path d="m92.9967 220.654c7.6843-3.293 13.0773-7.92 12.0443-10.335-1.032-2.415-8.0988-1.703-15.7834 1.589-7.6847 3.293-13.0773 7.92-12.0448 10.335 1.0326 2.415 8.0993 1.704 15.7839-1.589z" fill="#2f2e41"/><path d="m138.94 215.19c0 2.966-7.628 8.823-16.093 8.823-8.464 0-16.476-5.473-16.476-8.439s8.012-2.301 16.476-2.301c8.465 0 16.093-1.048 16.093 1.917z" fill="#fff"/><path d="m286.694 149.876c0-1.335-.292-2.51-.876-3.522-.584-1.059-1.594-1.934-3.032-2.625-1.437-.69-3.368-1.22-5.794-1.588-2.425-.368-5.479-.553-9.162-.553.494-4.281.898-8.632 1.212-13.052.315-4.42.562-8.564.741-12.431h25.265v8.633h-16.843c-.09 1.657-.202 3.268-.337 4.834-.09 1.519-.202 2.854-.337 4.005 6.558.461 11.386 2.049 14.485 4.766 3.144 2.67 4.716 6.399 4.716 11.187 0 2.21-.381 4.259-1.145 6.147-.764 1.887-1.909 3.522-3.436 4.903s-3.458 2.463-5.794 3.246c-2.291.783-4.986 1.174-8.085 1.174-1.212 0-2.492-.092-3.84-.276-1.302-.138-2.582-.346-3.84-.622-1.213-.23-2.313-.483-3.301-.759-.988-.277-1.752-.553-2.291-.829l1.819-8.495c1.123.507 2.605 1.013 4.447 1.52 1.841.46 4.042.69 6.602.69 3.099 0 5.345-.621 6.737-1.864 1.393-1.289 2.089-2.786 2.089-4.489z" fill="#fff"/><path d="m336.708 139.931c0 8.057-1.504 14.249-4.514 18.577-2.964 4.282-7.074 6.423-12.329 6.423s-9.387-2.141-12.396-6.423c-2.965-4.328-4.447-10.52-4.447-18.577 0-4.006.382-7.551 1.146-10.635.808-3.085 1.953-5.686 3.435-7.804 1.483-2.118 3.257-3.73 5.323-4.835s4.379-1.657 6.939-1.657c5.255 0 9.365 2.164 12.329 6.492 3.01 4.281 4.514 10.428 4.514 18.439zm-10.24 0c0-2.394-.113-4.558-.337-6.492-.225-1.98-.584-3.683-1.078-5.11-.494-1.428-1.168-2.532-2.021-3.315-.854-.783-1.909-1.174-3.167-1.174-1.257 0-2.313.391-3.166 1.174-.809.783-1.482 1.887-2.021 3.315-.494 1.427-.854 3.13-1.078 5.11-.225 1.934-.337 4.098-.337 6.492s.112 4.581.337 6.561c.224 1.979.584 3.683 1.078 5.11.539 1.427 1.212 2.532 2.021 3.315.853.783 1.909 1.174 3.166 1.174 1.258 0 2.313-.391 3.167-1.174.853-.783 1.527-1.888 2.021-3.315s.853-3.131 1.078-5.11c.224-1.98.337-4.167.337-6.561z" fill="#fff"/><path d="m375 139.931c0 8.057-1.505 14.249-4.514 18.577-2.964 4.282-7.074 6.423-12.329 6.423s-9.387-2.141-12.397-6.423c-2.964-4.328-4.446-10.52-4.446-18.577 0-4.006.382-7.551 1.145-10.635.809-3.085 1.954-5.686 3.436-7.804s3.256-3.73 5.323-4.835c2.066-1.105 4.379-1.657 6.939-1.657 5.255 0 9.365 2.164 12.329 6.492 3.009 4.281 4.514 10.428 4.514 18.439zm-10.241 0c0-2.394-.112-4.558-.336-6.492-.225-1.98-.584-3.683-1.078-5.11-.494-1.428-1.168-2.532-2.022-3.315-.853-.783-1.908-1.174-3.166-1.174s-2.313.391-3.167 1.174c-.808.783-1.482 1.887-2.021 3.315-.494 1.427-.853 3.13-1.078 5.11-.224 1.934-.337 4.098-.337 6.492s.113 4.581.337 6.561c.225 1.979.584 3.683 1.078 5.11.539 1.427 1.213 2.532 2.021 3.315.854.783 1.909 1.174 3.167 1.174s2.313-.391 3.166-1.174c.854-.783 1.528-1.888 2.022-3.315s.853-3.131 1.078-5.11c.224-1.98.336-4.167.336-6.561z" fill="#fff"/><path d="m9.207 182.118v7.882h-.935v-5.792c0-.077.00183-.159.0055-.247.00733-.088.01467-.178.022-.27l-2.706 4.928c-.08433.165-.21267.248-.385.248h-.154c-.17233 0-.30067-.083-.385-.248l-2.761-4.95c.022.195.033.374.033.539v5.792h-.935v-7.882h.7865c.09533 0 .16867.01.22.028s.10083.07.1485.154l2.7225 4.851c.044.088.08617.18.1265.275.044.095.08433.192.121.291.03667-.099.07517-.196.1155-.291.04033-.099.08433-.193.132-.281l2.673-4.845c.044-.084.09167-.136.143-.154.055-.018.13017-.028.2255-.028zm3.8379 7.167c.198 0 .3685-.024.5115-.072.1466-.051.2676-.121.363-.209.0953-.091.1668-.198.2145-.319.0476-.121.0715-.253.0715-.396 0-.132-.0202-.254-.0605-.368-.0404-.117-.1082-.22-.2035-.308-.0917-.088-.2127-.158-.363-.209-.1504-.051-.3337-.077-.55-.077h-1.188v1.958zm-.0165-2.673c.385 0 .7076.046.968.137.264.092.4748.215.6325.369.1613.154.2768.332.3465.533.0696.202.1045.411.1045.627 0 .25-.044.481-.132.693-.088.209-.2182.391-.3905.545-.1724.15-.385.269-.638.357-.253.085-.5445.127-.8745.127h-2.1395v-5.572h.935v2.184zm4.257-2.184v5.572h-.979v-5.572zm9.1799 0-3.1075 7.217c-.033.073-.0752.132-.1265.176-.0477.044-.1228.066-.2255.066h-.726l1.0175-2.212-2.299-5.247h.847c.0843 0 .1503.022.198.066.0513.041.0862.087.1045.138l1.4905 3.509c.0587.154.1082.315.1485.484.0513-.172.1063-.336.165-.49l1.4465-3.503c.022-.059.0587-.106.11-.143.055-.04.1155-.061.1815-.061zm8.6199 5.572h-.682c-.176 0-.3117-.028-.407-.083-.0917-.055-.1632-.141-.2145-.258l-1.0835-1.733c-.1797-.286-.4382-.429-.7755-.429h-.561v2.509h-.9515v-2.509h-.5555c-.165 0-.3153.037-.451.11-.132.074-.2402.18-.3245.319l-1.0835 1.733c-.055.117-.1302.203-.2255.258-.0917.055-.2255.083-.4015.083h-.6765l1.463-2.305c.0953-.161.2035-.291.3245-.39s.2695-.174.4455-.226c-.1393-.044-.2585-.108-.3575-.192-.0953-.088-.1852-.2-.2695-.336l-1.452-2.123h.77c.0953 0 .1815.026.2585.077.077.048.1375.114.1815.198l1.1825 1.76c.0807.121.1778.215.2915.281.1137.062.2475.093.4015.093h.4785v-2.409h.9515v2.409h.4675c.3117 0 .5463-.124.704-.374l1.1825-1.76c.044-.084.1045-.15.1815-.198.0807-.051.1687-.077.264-.077h.77l-1.452 2.123c-.0843.136-.176.248-.275.336-.0953.084-.2127.148-.352.192.176.052.3245.127.4455.226s.2292.229.3245.39zm4.4281-3.394c0-.227-.033-.434-.099-.621-.0623-.191-.1558-.354-.2805-.49-.121-.139-.2695-.245-.4455-.319-.176-.077-.3758-.115-.5995-.115-.4693 0-.8415.137-1.1165.412-.2713.272-.44.649-.506 1.133zm.792 2.613c-.121.147-.2658.275-.4345.385-.1687.106-.3502.194-.5445.264-.1907.07-.3887.121-.594.154-.2053.037-.4088.055-.6105.055-.385 0-.7407-.064-1.067-.193-.3227-.132-.6032-.322-.8415-.572-.2347-.253-.418-.564-.55-.935-.132-.37-.198-.795-.198-1.276 0-.388.0587-.751.176-1.089.121-.337.2933-.628.517-.874.2237-.249.4968-.444.8195-.583.3227-.143.6857-.215 1.089-.215.3337 0 .6417.057.924.171.286.11.5317.271.737.484.209.209.3722.469.4895.781.1173.308.176.66.176 1.056 0 .154-.0165.257-.0495.308s-.0953.077-.187.077h-3.7235c.011.352.0587.658.143.918.088.261.209.479.363.655.154.172.3373.302.55.39.2127.085.451.127.715.127.2457 0 .4565-.028.6325-.083.1797-.058.3337-.121.462-.187s.2347-.126.319-.181c.088-.059.1632-.088.2255-.088.0807 0 .143.031.187.093zm7.6415.115c.3263-.014.6141-.075.8635-.181.253-.106.4638-.249.6325-.429.1723-.183.3006-.402.385-.655.088-.253.132-.537.132-.852 0-.319-.044-.605-.132-.858-.0844-.257-.2127-.477-.385-.66-.1687-.183-.3795-.326-.6325-.429-.2494-.106-.539-.169-.869-.187v4.202zm-.869-4.251c-.33.018-.6197.081-.869.187-.2494.103-.4602.246-.6325.429-.1687.183-.297.403-.385.66-.0844.257-.1265.543-.1265.858s.0421.599.1265.852c.088.253.2163.472.385.655.1686.18.3776.323.627.429.253.106.5426.167.869.181l.0055-.033zm.8965-.737c.4583.018.8708.099 1.2375.242.3666.143.6783.339.935.588.2566.25.4528.547.5885.891.1393.341.209.723.209 1.144 0 .422-.0697.805-.209 1.15-.1357.341-.3319.636-.5885.885-.2567.246-.5684.44-.935.583-.3667.143-.7792.224-1.2375.243v1.848h-.924v-1.848c-.4584-.019-.8709-.1-1.2375-.243-.3667-.143-.6784-.337-.935-.583-.2567-.249-.4547-.544-.594-.885-.1357-.345-.2035-.728-.2035-1.15 0-.421.0678-.803.2035-1.144.1393-.344.3373-.641.594-.891.2566-.249.5683-.445.935-.588.3666-.143.7791-.224 1.2375-.242v-2.228h.924zm8.9713.082v5.572h-.979v-3.784c0-.073.0037-.152.011-.237.0074-.084.0165-.168.0275-.253-.033.074-.066.142-.099.204s-.0678.119-.1045.17l-2.6895 3.658c-.0403.059-.0916.115-.154.17-.0586.052-.1246.078-.198.078h-.594v-5.572h.9845v3.784c0 .07-.0036.147-.011.231-.0073.081-.0165.163-.0275.247.033-.069.066-.133.099-.192.033-.062.066-.119.099-.171l2.6895-3.657c.0404-.059.0917-.114.154-.165.0624-.055.1302-.083.2035-.083zm4.9302.275c.0513-.08.1191-.146.2035-.198.0843-.051.1741-.077.2695-.077h.7645l-1.4465 2.123c-.088.136-.1797.248-.275.336-.0954.084-.2127.15-.352.198.176.048.3245.123.4455.225.121.099.2291.228.3245.385l1.463 2.305h-.682c-.176 0-.3117-.029-.407-.088-.0954-.059-.1779-.143-.2475-.253l-1.0835-1.733c-.1724-.286-.4309-.429-.7755-.429h-.5995v2.509h-.9845v-5.578h.9845v2.409h.528c.2933 0 .5225-.124.6875-.374zm5.9735.715c-.0293.041-.0587.072-.088.094s-.0697.033-.121.033c-.055 0-.1155-.022-.1815-.066-.066-.048-.1485-.099-.2475-.154-.0953-.055-.2145-.105-.3575-.149-.1393-.047-.3117-.071-.517-.071-.275 0-.517.049-.726.148-.209.096-.385.235-.528.418-.1393.184-.2457.406-.319.666-.0697.26-.1045.552-.1045.874 0 .338.0385.638.1155.902.077.261.1852.481.3245.66.143.176.3135.312.5115.407.2017.092.4272.138.6765.138.2383 0 .4345-.028.5885-.083.154-.058.2805-.122.3795-.192.1027-.07.187-.132.253-.187.0697-.059.1375-.088.2035-.088.0807 0 .143.031.187.093l.275.358c-.121.15-.2585.279-.4125.385s-.3208.196-.5005.269c-.176.07-.3612.121-.5555.155-.1943.033-.3923.049-.594.049-.3483 0-.6728-.064-.9735-.193-.297-.128-.5555-.313-.7755-.555-.22-.246-.3923-.546-.517-.902s-.187-.761-.187-1.216c0-.414.0568-.797.1705-1.149.1173-.352.286-.655.506-.908.2237-.256.4968-.456.8195-.599.3263-.143.7003-.215 1.122-.215.3923 0 .737.065 1.034.193.3007.125.5665.302.7975.533zm6.1549-.99v5.572h-.979v-3.784c0-.073.0037-.152.011-.237.0074-.084.0165-.168.0275-.253-.033.074-.066.142-.099.204s-.0678.119-.1045.17l-2.6895 3.658c-.0403.059-.0916.115-.154.17-.0586.052-.1246.078-.198.078h-.594v-5.572h.9845v3.784c0 .07-.0036.147-.011.231-.0073.081-.0165.163-.0275.247.033-.069.066-.133.099-.192.033-.062.066-.119.099-.171l2.6895-3.657c.0404-.059.0917-.114.154-.165.0624-.055.1302-.083.2035-.083zm7.7572-.016v5.588h-.8855v-3.702c0-.102.0055-.216.0165-.341.0146-.128.033-.247.055-.357l-1.936 3.393c-.0294.055-.0679.099-.1155.132-.0477.033-.1027.05-.165.05h-.11c-.0624 0-.1192-.017-.1705-.05-.0477-.033-.0862-.077-.1155-.132l-1.969-3.404c.0183.11.0348.231.0495.363.0146.128.022.244.022.346v3.702h-.8855v-5.588h.7865c.0696 0 .1375.016.2035.049.066.03.1228.087.1705.171l1.738 2.904c.0843.169.1595.346.2255.533.0623-.194.1356-.372.22-.533l1.705-2.904c.0476-.088.1045-.147.1705-.176s.1338-.044.2035-.044zm2.7233-2.294v3.146c0 .165-.0036.327-.011.484-.0073.158-.0165.318-.0275.479-.011.158-.0256.321-.044.489-.0146.165-.033.343-.055.534h-.66c-.022-.191-.0421-.369-.0605-.534-.0146-.168-.0275-.331-.0385-.489-.011-.161-.0201-.321-.0275-.479-.0073-.157-.011-.319-.011-.484v-3.146zm-1.1715 7.277c0-.095.0165-.185.0495-.27.0367-.084.0862-.157.1485-.22.0624-.062.1339-.111.2145-.148.0844-.037.176-.055.275-.055.0954 0 .1834.018.264.055.0844.037.1577.086.22.148.0624.063.1119.136.1485.22.0367.085.055.175.055.27 0 .099-.0183.191-.055.275-.0366.081-.0861.152-.1485.214-.0623.063-.1356.11-.22.144-.0806.036-.1686.055-.264.055-.099 0-.1906-.019-.275-.055-.0806-.034-.1521-.081-.2145-.144-.0623-.062-.1118-.133-.1485-.214-.033-.084-.0495-.176-.0495-.275z" fill="#0e0f2d"/></svg>