<svg fill="none" height="103" viewBox="0 0 239 103" width="239" xmlns="http://www.w3.org/2000/svg"><g fill="#0e0f2d"><g fill-opacity=".7"><path d="m112.964 98.0784v-10.42l-3.96 5.72h-1.36l-3.94-5.72v10.42h-1.8v-13.3h1.98l4.44 6.42 4.44-6.42h2v13.3z"/><path d="m118.488 93.8384c0 .32.113.6533.34 1 .24.3467.513.64.82.88.56.44 1.213.66 1.96.66 1.186 0 2.153-.5733 2.9-1.72l1.52.9c-.52.84-1.16 1.4867-1.92 1.94s-1.594.68-2.5.68c-.68 0-1.327-.1267-1.94-.38-.614-.2667-1.154-.6333-1.62-1.1-.467-.4667-.834-1.0067-1.1-1.62-.254-.6133-.38-1.26-.38-1.94s.126-1.3267.38-1.94c.266-.6267.633-1.1733 1.1-1.64.453-.4667.986-.8267 1.6-1.08.626-.2533 1.28-.38 1.96-.38s1.326.1267 1.94.38c.626.2533 1.166.6133 1.62 1.08.986 1.0133 1.48 2.1867 1.48 3.52 0 .24-.02.4933-.06.76zm3.12-4.1c-.547 0-1.06.12-1.54.36s-.867.56-1.16.96c-.28.3867-.42.8-.42 1.24h6.24c0-.44-.147-.8533-.44-1.24-.28-.4-.66-.72-1.14-.96s-.994-.36-1.54-.36z"/><path d="m133.292 91.0584c-.04-.24-.127-.4667-.26-.68-.253-.44-.753-.66-1.5-.66-.4 0-.707.0467-.92.14-.28.1067-.493.26-.64.46-.133.2-.2.42-.2.66 0 .2933.107.56.32.8.227.2533.593.3867 1.1.4.893.04 1.613.1467 2.16.32.56.1733.987.4733 1.28.9.307.4267.46 1.0267.46 1.8 0 .7867-.3 1.4667-.9 2.04-.293.28-.64.5067-1.04.68-.387.1733-.793.26-1.22.26h-.3c-1.067 0-1.927-.3067-2.58-.92-.533-.4933-.867-1.1867-1-2.08h1.78c.067.32.2.58.4.78.307.2933.733.44 1.28.44.147 0 .253-.0067.32-.02.467-.0267.833-.1533 1.1-.38.267-.24.4-.5333.4-.88 0-.48-.147-.7933-.44-.94s-.86-.22-1.7-.22c-1.053 0-1.86-.3333-2.42-1-.453-.5067-.68-1.1467-.68-1.92 0-.1733.007-.3067.02-.4.107-.8667.46-1.5267 1.06-1.98.613-.4667 1.42-.7 2.42-.7.733 0 1.373.16 1.92.48.387.24.72.5733 1 1 .267.4267.44.96.52 1.6l-.04.02z"/><path d="m141.534 91.0584c-.04-.24-.126-.4667-.26-.68-.253-.44-.753-.66-1.5-.66-.4 0-.706.0467-.92.14-.28.1067-.493.26-.64.46-.133.2-.2.42-.2.66 0 .2933.107.56.32.8.227.2533.594.3867 1.1.4.894.04 1.614.1467 2.16.32.56.1733.987.4733 1.28.9.307.4267.46 1.0267.46 1.8 0 .7867-.3 1.4667-.9 2.04-.293.28-.64.5067-1.04.68-.386.1733-.793.26-1.22.26h-.3c-1.066 0-1.926-.3067-2.58-.92-.533-.4933-.866-1.1867-1-2.08h1.78c.067.32.2.58.4.78.307.2933.734.44 1.28.44.147 0 .254-.0067.32-.02.467-.0267.834-.1533 1.1-.38.267-.24.4-.5333.4-.88 0-.48-.146-.7933-.44-.94-.293-.1467-.86-.22-1.7-.22-1.053 0-1.86-.3333-2.42-1-.453-.5067-.68-1.1467-.68-1.92 0-.1733.007-.3067.02-.4.107-.8667.46-1.5267 1.06-1.98.614-.4667 1.42-.7 2.42-.7.734 0 1.374.16 1.92.48.387.24.72.5733 1 1 .267.4267.44.96.52 1.6l-.04.02z"/><path d="m146.456 93.8384c0 .32.114.6533.34 1 .24.3467.514.64.82.88.56.44 1.214.66 1.96.66 1.187 0 2.154-.5733 2.9-1.72l1.52.9c-.52.84-1.16 1.4867-1.92 1.94s-1.593.68-2.5.68c-.68 0-1.326-.1267-1.94-.38-.613-.2667-1.153-.6333-1.62-1.1-.466-.4667-.833-1.0067-1.1-1.62-.253-.6133-.38-1.26-.38-1.94s.127-1.3267.38-1.94c.267-.6267.634-1.1733 1.1-1.64.454-.4667.987-.8267 1.6-1.08.627-.2533 1.28-.38 1.96-.38s1.327.1267 1.94.38c.627.2533 1.167.6133 1.62 1.08.987 1.0133 1.48 2.1867 1.48 3.52 0 .24-.02.4933-.06.76zm3.12-4.1c-.546 0-1.06.12-1.54.36s-.866.56-1.16.96c-.28.3867-.42.8-.42 1.24h6.24c0-.44-.146-.8533-.44-1.24-.28-.4-.66-.72-1.14-.96s-.993-.36-1.54-.36z"/><path d="m162.596 98.0784v-6c0-.6-.22-1.12-.66-1.56-.427-.4267-.947-.64-1.56-.64-.6 0-1.12.22-1.56.66-.2.2-.36.44-.48.72-.12.2667-.18.54-.18.82v6h-1.74v-9.76h1.74v.82c.253-.3067.587-.56 1-.76s.82-.3 1.22-.3c.533 0 1.04.1067 1.52.32.493.2.927.4867 1.3.86.36.36.64.7867.84 1.28.213.48.32.9933.32 1.54v6z"/><path d="m171.002 102.338c-1.586 0-2.96-.706-4.12-2.12l1.58-.9396c.72.8396 1.567 1.2596 2.54 1.2596.44 0 .86-.086 1.26-.26.4-.173.747-.4129 1.04-.7196.294-.3067.52-.66.68-1.06.174-.4.26-.82.26-1.26v-.48c-.906 1.0133-1.993 1.52-3.26 1.52-.68 0-1.333-.14-1.96-.42-.613-.2933-1.146-.6867-1.6-1.18-.453-.4933-.813-1.0533-1.08-1.68-.253-.6267-.38-1.2733-.38-1.94 0-.68.127-1.32.38-1.92.267-.6133.634-1.1533 1.1-1.62.467-.4533 1-.8067 1.6-1.06.614-.2533 1.26-.38 1.94-.38.734 0 1.387.16 1.96.48.574.32 1.007.68 1.3 1.08v-1.38h1.8v8.98c0 .6933-.133 1.3467-.4 1.96-.253.6133-.613 1.1596-1.08 1.6396-.453.467-.993.834-1.62 1.1-.613.267-1.26.4-1.94.4zm-.02-12.4396c-.44 0-.86.0867-1.26.26-.4.16-.746.3933-1.04.7-.293.3067-.526.6667-.7 1.08-.173.4-.26.82-.26 1.26s.087.8667.26 1.28c.174.4.407.7467.7 1.04.294.2933.64.5267 1.04.7s.82.26 1.26.26.86-.0867 1.26-.26.747-.4067 1.04-.7c.294-.2933.52-.64.68-1.04.174-.4133.26-.84.26-1.28s-.086-.86-.26-1.26c-.16-.4133-.386-.7733-.68-1.08-.293-.3067-.64-.54-1.04-.7-.4-.1733-.82-.26-1.26-.26z"/><path d="m179.757 93.8384c0 .32.114.6533.34 1 .24.3467.514.64.82.88.56.44 1.214.66 1.96.66 1.187 0 2.154-.5733 2.9-1.72l1.52.9c-.52.84-1.16 1.4867-1.92 1.94s-1.593.68-2.5.68c-.68 0-1.326-.1267-1.94-.38-.613-.2667-1.153-.6333-1.62-1.1-.466-.4667-.833-1.0067-1.1-1.62-.253-.6133-.38-1.26-.38-1.94s.127-1.3267.38-1.94c.267-.6267.634-1.1733 1.1-1.64.454-.4667.987-.8267 1.6-1.08.627-.2533 1.28-.38 1.96-.38s1.327.1267 1.94.38c.627.2533 1.167.6133 1.62 1.08.987 1.0133 1.48 2.1867 1.48 3.52 0 .24-.02.4933-.06.76zm3.12-4.1c-.546 0-1.06.12-1.54.36s-.866.56-1.16.96c-.28.3867-.42.8-.42 1.24h6.24c0-.44-.146-.8533-.44-1.24-.28-.4-.66-.72-1.14-.96s-.993-.36-1.54-.36z"/><path d="m194.177 89.9984c-.32-.1467-.607-.22-.86-.22-.533 0-.973.1867-1.32.56-.373.4-.56.86-.56 1.38v6.36h-1.72v-6.36c0-.72.18-1.38.54-1.98.373-.6.88-1.0667 1.52-1.4.48-.2267.993-.34 1.54-.34.44 0 .86.08 1.26.24s.82.42 1.26.78z"/></g><path d="m136.111 46.75v9.3292h-26.047v-9.3292zm-21.968-19.9716v50.309h-12.239v-50.309zm30.197 0v50.309h-12.204v-50.309z"/><path d="m179.662 26.7784h12.239v32.8598c0 3.916-.825 7.233-2.476 9.9512-1.65 2.6951-3.963 4.7337-6.938 6.1158-2.976 1.3822-6.474 2.0732-10.496 2.0732-3.975 0-7.474-.691-10.496-2.0732-2.998-1.3821-5.346-3.4207-7.043-6.1158-1.674-2.7182-2.511-6.0352-2.511-9.9512v-32.8598h12.274v32.8598c0 2.0731.302 3.7662.907 5.0792.604 1.29 1.488 2.2345 2.65 2.8334s2.569.8983 4.219.8983c1.674 0 3.08-.2994 4.219-.8983s1.999-1.5434 2.58-2.8334c.582-1.313.872-3.0061.872-5.0792z"/><path d="m220.319 55.6991h-13.076l-.069-7.9471h10.6c1.906 0 3.429-.2073 4.568-.622 1.139-.4376 1.964-1.0711 2.475-1.9004.535-.8292.802-1.8658.802-3.1097 0-1.4282-.267-2.58-.802-3.4553-.534-.8753-1.383-1.5088-2.545-1.9004-1.139-.4146-2.615-.622-4.428-.622h-5.998v40.9452h-12.239v-50.309h18.237c3.138 0 5.939.288 8.403.8638 2.464.5529 4.556 1.4052 6.276 2.5569 1.744 1.1518 3.069 2.603 3.976 4.3537.906 1.7276 1.359 3.7663 1.359 6.1159 0 2.0501-.441 3.9735-1.325 5.7703-.883 1.7967-2.359 3.2595-4.428 4.3882-2.046 1.1057-4.847 1.6816-8.403 1.7276zm-.488 21.3883h-15.551l4.184-9.3293h11.367c1.674 0 3.011-.2534 4.01-.7602 1.023-.5298 1.755-1.2208 2.197-2.0731.465-.8754.697-1.8429.697-2.9025 0-1.29-.221-2.4072-.662-3.3516-.419-.9445-1.093-1.6701-2.023-2.1768-.93-.5299-2.173-.7948-3.731-.7948h-10.286l.07-7.9471h12.308l2.86 3.1789c3.394-.1383 6.079.334 8.054 1.4166 2 1.0827 3.429 2.5109 4.289 4.2846s1.29 3.628 1.29 5.563c0 3.294-.72 6.0467-2.161 8.2581-1.418 2.2114-3.545 3.8699-6.381 4.9756s-6.347 1.6586-10.531 1.6586z"/></g><g fill="#1d4ed8"><path d="m71.2697 15.4908 17.4804 10.2896.1708 20.2833-17.6646-9.7865z"/><path d="m43.62 20.2822.0339 31.9313-43.059894 24.8606 43.146994 24.9599c.9286.537 2.0732.538 3.0022.002l40.9281-23.6302c.936-.5404 1.509-1.5426 1.4999-2.6233l-.184-21.8519-17.7224-9.6706.0254 23.9485-27.6024 15.9363-10.6356-6.1555 27.002-15.5896c.9257-.5345 1.4971-1.5212 1.4999-2.5901l.1292-48.2384c.0028-1.0656-.5598-2.05279-1.4782-2.59337l-14.5475-8.563182c-.9315-.548277-2.0858-.553139-3.0219-.012725l-41.1357 23.749677c-.93549.5402-1.50838223 1.5415-1.49990726 2.6217l.35134626 44.7811 15.693961-9.0609-.0279-26.275z"/></g></svg>